<?xml version="1.0" encoding="utf-8"?>
<!-- Generator: Adobe Illustrator 16.0.0, SVG Export Plug-In . SVG Version: 6.00 Build 0)  -->
<!DOCTYPE svg PUBLIC "-//W3C//DTD SVG 1.1//EN" "http://www.w3.org/Graphics/SVG/1.1/DTD/svg11.dtd">
<svg version="1.1" id="Layer_1" xmlns="http://www.w3.org/2000/svg" xmlns:xlink="http://www.w3.org/1999/xlink" x="0px" y="0px"
	 width="45.615px" height="71.919px" viewBox="0 0 45.615 71.919" enable-background="new 0 0 45.615 71.919" xml:space="preserve">
<g>
	<path fill="#FFFFFF" d="M0.137,42.064h1.319v6.012h8.223v-6.012h1.319v13.847H9.679v-6.71H1.457v6.71H0.137V42.064z"/>
	<path fill="#FFFFFF" d="M17.156,42.064h1.474l5.43,13.847h-1.416l-1.687-4.306h-6.304l-1.668,4.306h-1.416L17.156,42.064z
		 M15.06,50.481h5.45l-2.676-7.099L15.06,50.481z"/>
	<path fill="#FFFFFF" d="M24.118,42.064h1.552l3.917,5.799l4.053-5.799h1.475l-4.732,6.749l5.004,7.098h-1.59l-4.208-6.109
		l-4.268,6.109h-1.493l4.983-7.137L24.118,42.064z"/>
	<path fill="#FFFFFF" d="M35.917,42.064h9.561v1.125h-8.242v5.003h7.72v1.125h-7.72v5.469h8.34v1.125h-9.658V42.064z"/>
</g>
<g>
	<path fill="#FFFFFF" d="M7.081,69.08H6.218v-1.457h-0.03c-0.4,0.996-1.62,1.679-2.734,1.679c-2.333,0-3.448-1.887-3.448-4.057
		s1.114-4.057,3.448-4.057c1.145,0,2.259,0.58,2.66,1.679h0.029v-4.399h0.938V69.08z M3.454,68.516c1.991,0,2.689-1.681,2.689-3.271
		s-0.698-3.27-2.689-3.27c-1.783,0-2.513,1.679-2.513,3.27S1.67,68.516,3.454,68.516z"/>
	<path fill="#FFFFFF" d="M8.875,65.498c0.015,1.367,0.729,3.018,2.526,3.018c1.367,0,2.11-0.804,2.408-1.962h0.937
		c-0.401,1.737-1.412,2.748-3.345,2.748c-2.438,0-3.463-1.872-3.463-4.057c0-2.021,1.025-4.057,3.463-4.057
		c2.468,0,3.448,2.154,3.374,4.31H8.875z M13.84,64.71c-0.045-1.412-0.922-2.733-2.438-2.733c-1.53,0-2.378,1.337-2.526,2.733H13.84
		z"/>
	<path fill="#FFFFFF" d="M14.47,61.411h1.04l2.408,6.732h0.03l2.378-6.732h0.966l-2.869,7.669h-0.996L14.47,61.411z"/>
	<path fill="#FFFFFF" d="M21.989,65.498c0.015,1.367,0.729,3.018,2.526,3.018c1.367,0,2.11-0.804,2.408-1.962h0.936
		c-0.4,1.737-1.411,2.748-3.344,2.748c-2.438,0-3.463-1.872-3.463-4.057c0-2.021,1.025-4.057,3.463-4.057
		c2.467,0,3.448,2.154,3.374,4.31H21.989z M26.954,64.71c-0.045-1.412-0.922-2.733-2.438-2.733c-1.531,0-2.378,1.337-2.526,2.733
		H26.954z"/>
	<path fill="#FFFFFF" d="M28.673,58.468h0.936v10.611h-0.936V58.468z"/>
	<path fill="#FFFFFF" d="M37.703,65.245c0,2.2-1.278,4.057-3.626,4.057c-2.35,0-3.626-1.856-3.626-4.057s1.277-4.057,3.626-4.057
		C36.424,61.188,37.703,63.045,37.703,65.245z M31.386,65.245c0,1.635,0.892,3.271,2.69,3.271c1.798,0,2.689-1.636,2.689-3.271
		s-0.892-3.27-2.689-3.27C32.278,61.976,31.386,63.61,31.386,65.245z"/>
	<path fill="#FFFFFF" d="M38.541,61.411h0.861v1.457h0.03c0.432-1.041,1.501-1.679,2.734-1.679c2.333,0,3.448,1.887,3.448,4.057
		s-1.115,4.058-3.448,4.058c-1.146,0-2.259-0.579-2.66-1.68h-0.03v4.295H38.54L38.541,61.411L38.541,61.411z M42.167,61.977
		c-2.066,0-2.69,1.53-2.69,3.27c0,1.59,0.698,3.271,2.69,3.271c1.783,0,2.512-1.681,2.512-3.271S43.95,61.977,42.167,61.977z"/>
</g>
<g>
	<g>
		<path fill="#FFFFFF" d="M0.201,37.835c-0.072,0-0.139-0.039-0.175-0.101c-0.035-0.063-0.034-0.139,0.001-0.201l7.415-22.37
			L22.516,0.06C22.555,0.021,22.606,0,22.659,0c0.025,0,0.052,0.005,0.076,0.017c0.043,0.018,0.079,0.05,0.101,0.09l14.983,14.984
			l7.474,22.469c0.036,0.062,0.035,0.131-0.001,0.192c-0.036,0.063-0.104,0.094-0.175,0.094L0.201,37.835z M43.709,36.851
			L22.652,1.754L1.606,36.838L43.709,36.851z M8.296,15.69L2.305,33.735l18.076-30.13L8.296,15.69z M42.999,33.728l-6.032-18.11
			L24.921,3.6L42.999,33.728z"/>
	</g>
	<rect x="8.736" y="29.201" fill="#FFFFFF" width="15.597" height="1"/>
	<rect x="26.999" y="29.201" fill="#FFFFFF" width="9.652" height="1"/>
	<rect x="6.8" y="33.201" fill="#FFFFFF" width="8.116" height="1"/>
	<rect x="17.701" y="33.201" fill="#FFFFFF" width="13.172" height="1"/>
	<rect x="33.419" y="33.201" fill="#FFFFFF" width="5.424" height="1"/>
</g>
<g>
</g>
<g>
</g>
<g>
</g>
<g>
</g>
<g>
</g>
<g>
</g>
</svg>
