<?xml version="1.0" encoding="utf-8"?>
<!-- Generator: Adobe Illustrator 16.0.0, SVG Export Plug-In . SVG Version: 6.00 Build 0)  -->
<!DOCTYPE svg PUBLIC "-//W3C//DTD SVG 1.1//EN" "http://www.w3.org/Graphics/SVG/1.1/DTD/svg11.dtd">
<svg version="1.1" id="Layer_1" xmlns="http://www.w3.org/2000/svg" xmlns:xlink="http://www.w3.org/1999/xlink" x="0px" y="0px"
	 width="165.708px" height="37.846px" viewBox="0 0 165.708 37.846" enable-background="new 0 0 165.708 37.846"
	 xml:space="preserve">
<g>
	<path fill="#FFFFFF" d="M50.886,15.353h1.319v6.012h8.223v-6.012h1.319V29.2h-1.319v-6.711h-8.223V29.2h-1.319V15.353z"/>
	<path fill="#FFFFFF" d="M67.904,15.353h1.474l5.43,13.847h-1.416l-1.687-4.306h-6.303L63.734,29.2h-1.416L67.904,15.353z
		 M65.81,23.771h5.45l-2.676-7.099L65.81,23.771z"/>
	<path fill="#FFFFFF" d="M74.867,15.353h1.552l3.917,5.798l4.053-5.798h1.474l-4.732,6.75l5.004,7.098h-1.59l-4.208-6.109
		L76.069,29.2h-1.494l4.984-7.137L74.867,15.353z"/>
	<path fill="#FFFFFF" d="M86.667,15.353h9.561v1.125h-8.242v5.003h7.719v1.125h-7.719v5.469h8.339V29.2h-9.658V15.353z"/>
	<path fill="#FFFFFF" d="M110.778,29.2h-1.125v-1.9h-0.039c-0.523,1.299-2.113,2.191-3.568,2.191c-3.045,0-4.499-2.463-4.499-5.295
		c0-2.831,1.454-5.294,4.499-5.294c1.493,0,2.948,0.756,3.472,2.192h0.039v-5.741h1.222V29.2z M106.045,28.464
		c2.599,0,3.511-2.192,3.511-4.268c0-2.074-0.912-4.267-3.511-4.267c-2.327,0-3.277,2.192-3.277,4.267
		C102.768,26.271,103.718,28.464,106.045,28.464z"/>
	<path fill="#FFFFFF" d="M113.103,24.526c0.019,1.784,0.95,3.938,3.297,3.938c1.784,0,2.754-1.048,3.142-2.561h1.222
		c-0.523,2.27-1.843,3.588-4.363,3.588c-3.181,0-4.52-2.443-4.52-5.295c0-2.637,1.339-5.294,4.52-5.294
		c3.219,0,4.499,2.812,4.402,5.625H113.103z M119.581,23.499c-0.059-1.844-1.203-3.569-3.181-3.569
		c-1.998,0-3.104,1.745-3.297,3.569H119.581z"/>
	<path fill="#FFFFFF" d="M120.379,19.193h1.358l3.142,8.786h0.039l3.103-8.786h1.261L125.539,29.2h-1.3L120.379,19.193z"/>
	<path fill="#FFFFFF" d="M130.168,24.526c0.02,1.784,0.95,3.938,3.297,3.938c1.784,0,2.754-1.048,3.142-2.561h1.223
		c-0.524,2.27-1.843,3.588-4.364,3.588c-3.181,0-4.519-2.443-4.519-5.295c0-2.637,1.338-5.294,4.519-5.294
		c3.22,0,4.5,2.812,4.402,5.625H130.168z M136.646,23.499c-0.058-1.844-1.202-3.569-3.181-3.569c-1.997,0-3.103,1.745-3.297,3.569
		H136.646z"/>
	<path fill="#FFFFFF" d="M138.872,15.353h1.222V29.2h-1.222V15.353z"/>
	<path fill="#FFFFFF" d="M150.628,24.196c0,2.871-1.668,5.295-4.731,5.295c-3.064,0-4.732-2.424-4.732-5.295
		c0-2.87,1.668-5.294,4.732-5.294C148.96,18.902,150.628,21.326,150.628,24.196z M142.386,24.196c0,2.134,1.164,4.268,3.511,4.268
		s3.51-2.134,3.51-4.268c0-2.133-1.163-4.267-3.51-4.267S142.386,22.063,142.386,24.196z"/>
	<path fill="#FFFFFF" d="M151.701,19.193h1.125v1.901h0.038c0.563-1.358,1.959-2.192,3.568-2.192c3.045,0,4.5,2.463,4.5,5.294
		c0,2.832-1.455,5.295-4.5,5.295c-1.493,0-2.947-0.756-3.471-2.191h-0.039v5.604h-1.222V19.193z M156.432,19.93
		c-2.695,0-3.51,1.997-3.51,4.267c0,2.075,0.911,4.268,3.51,4.268c2.328,0,3.278-2.192,3.278-4.268
		C159.71,22.122,158.76,19.93,156.432,19.93z"/>
</g>
<g>
	<g>
		<path fill="#FFFFFF" d="M0.2,37.834c-0.073,0-0.14-0.04-0.175-0.104s-0.033-0.142,0.005-0.203l7.412-22.365L22.516,0.059
			C22.554,0.021,22.605,0,22.657,0c0.026,0,0.052,0.005,0.077,0.016c0.043,0.018,0.079,0.05,0.1,0.09l14.985,14.985l7.473,22.469
			c0.037,0.062,0.036,0.13,0,0.192c-0.035,0.063-0.104,0.094-0.176,0.094L0.2,37.834z M43.708,36.85L22.652,1.754L1.606,36.838
			L43.708,36.85z M8.295,15.689L2.304,33.734L20.38,3.605L8.295,15.689z M42.998,33.727l-6.032-18.111L24.921,3.599L42.998,33.727z"
			/>
	</g>
	<rect x="8.736" y="29.2" fill="#FFFFFF" width="15.596" height="1"/>
	<rect x="26.998" y="29.2" fill="#FFFFFF" width="9.654" height="1"/>
	<rect x="6.8" y="33.2" fill="#FFFFFF" width="8.116" height="1"/>
	<rect x="17.7" y="33.2" fill="#FFFFFF" width="13.172" height="1"/>
	<rect x="33.419" y="33.2" fill="#FFFFFF" width="5.424" height="1"/>
</g>
<g>
</g>
<g>
</g>
<g>
</g>
<g>
</g>
<g>
</g>
<g>
</g>
</svg>
