<?xml version="1.0" encoding="utf-8"?>
<!-- Generator: Adobe Illustrator 22.0.1, SVG Export Plug-In . SVG Version: 6.00 Build 0)  -->
<svg version="1.1" id="Layer_1" xmlns="http://www.w3.org/2000/svg" xmlns:xlink="http://www.w3.org/1999/xlink" x="0px" y="0px"
	 viewBox="0 0 850 350" style="enable-background:new 0 0 850 350;" xml:space="preserve">
<style type="text/css">
	.st0{fill:#FFFFFF;}
</style>
<path class="st0" d="M98.6,121.9H91V78.3c0-3.5,0.2-7.7,0.6-12.7h-0.2c-0.7,2.9-1.4,5-2,6.3l-22.3,50h-3.7L41.4,72.3
	c-0.6-1.5-1.3-3.7-2-6.7h-0.2c0.2,2.6,0.4,6.9,0.4,12.8v43.6h-7.4V56.8h10.1l20,45.4c1.5,3.5,2.5,6.1,3,7.8h0.3
	c1.3-3.6,2.3-6.2,3.1-8l20.4-45.2h9.5V121.9z"/>
<path class="st0" d="M118.6,63.6c-1.3,0-2.5-0.5-3.4-1.4s-1.4-2.1-1.4-3.5s0.5-2.5,1.4-3.5c0.9-0.9,2.1-1.4,3.4-1.4
	c1.4,0,2.5,0.5,3.5,1.4c1,0.9,1.4,2.1,1.4,3.5c0,1.3-0.5,2.5-1.4,3.4C121.1,63.2,119.9,63.6,118.6,63.6z M122.2,121.9h-7.4V75.4h7.4
	V121.9z"/>
<path class="st0" d="M169,119.8c-3.6,2.1-7.8,3.2-12.7,3.2c-6.6,0-12-2.2-16.1-6.5c-4.1-4.3-6.1-9.9-6.1-16.8
	c0-7.7,2.2-13.8,6.6-18.5c4.4-4.6,10.2-7,17.6-7c4.1,0,7.7,0.8,10.8,2.3v7.6c-3.5-2.4-7.1-3.6-11.1-3.6c-4.8,0-8.6,1.7-11.7,5.1
	c-3,3.4-4.6,7.9-4.6,13.4c0,5.4,1.4,9.7,4.3,12.9c2.9,3.1,6.7,4.7,11.5,4.7c4.1,0,7.9-1.3,11.4-4L169,119.8L169,119.8z"/>
<path class="st0" d="M204.5,83c-1.3-1-3.2-1.5-5.6-1.5c-3.2,0-5.8,1.5-8,4.5c-2.1,3-3.2,7.1-3.2,12.3v23.7h-7.4V75.4h7.4V85h0.2
	c1.1-3.3,2.7-5.8,4.9-7.7c2.2-1.8,4.6-2.7,7.3-2.7c1.9,0,3.4,0.2,4.4,0.6V83z"/>
<path class="st0" d="M230.8,123c-6.9,0-12.4-2.2-16.5-6.5c-4.1-4.3-6.2-10.1-6.2-17.3c0-7.8,2.1-13.9,6.4-18.3
	c4.3-4.4,10-6.6,17.3-6.6c6.9,0,12.3,2.1,16.2,6.4c3.9,4.3,5.8,10.2,5.8,17.8c0,7.4-2.1,13.4-6.3,17.8
	C243.4,120.8,237.8,123,230.8,123z M231.3,80.6c-4.8,0-8.6,1.6-11.4,4.9c-2.8,3.3-4.2,7.7-4.2,13.5c0,5.5,1.4,9.9,4.2,13
	s6.6,4.8,11.3,4.8c4.8,0,8.5-1.6,11.1-4.7c2.6-3.1,3.9-7.6,3.9-13.3c0-5.8-1.3-10.3-3.9-13.4C239.8,82.2,236.1,80.6,231.3,80.6z"/>
<path class="st0" d="M263,120.3v-8c4.1,3,8.5,4.5,13.4,4.5c6.5,0,9.8-2.2,9.8-6.5c0-1.2-0.3-2.3-0.8-3.2c-0.6-0.9-1.3-1.6-2.3-2.3
	c-1-0.7-2.1-1.3-3.4-1.8c-1.3-0.5-2.7-1.1-4.2-1.7c-2.1-0.8-3.9-1.6-5.4-2.5c-1.6-0.8-2.9-1.8-3.9-2.8c-1-1-1.8-2.2-2.4-3.6
	c-0.5-1.3-0.8-2.9-0.8-4.7c0-2.2,0.5-4.1,1.5-5.8c1-1.7,2.3-3.1,4-4.2c1.7-1.1,3.6-2,5.7-2.6c2.1-0.6,4.3-0.9,6.6-0.9
	c4,0,7.6,0.7,10.8,2.1V84c-3.4-2.2-7.4-3.4-11.8-3.4c-1.4,0-2.6,0.2-3.8,0.5c-1.1,0.3-2.1,0.8-2.9,1.3s-1.4,1.3-1.9,2.1
	c-0.4,0.8-0.7,1.7-0.7,2.7c0,1.2,0.2,2.2,0.7,3c0.4,0.8,1.1,1.5,1.9,2.2c0.8,0.6,1.9,1.2,3.1,1.7c1.2,0.5,2.6,1.1,4.1,1.7
	c2.1,0.8,3.9,1.6,5.5,2.4c1.6,0.8,3,1.8,4.2,2.8c1.1,1,2,2.2,2.7,3.6c0.6,1.4,0.9,3,0.9,4.9c0,2.3-0.5,4.3-1.5,6
	c-1,1.7-2.4,3.1-4.1,4.2c-1.7,1.1-3.6,2-5.9,2.5c-2.2,0.5-4.5,0.8-6.9,0.8C270.7,123,266.5,122.1,263,120.3z"/>
<path class="st0" d="M324.7,123c-6.9,0-12.4-2.2-16.5-6.5c-4.1-4.3-6.2-10.1-6.2-17.3c0-7.8,2.1-13.9,6.4-18.3
	c4.3-4.4,10-6.6,17.3-6.6c6.9,0,12.3,2.1,16.2,6.4c3.9,4.3,5.8,10.2,5.8,17.8c0,7.4-2.1,13.4-6.3,17.8S331.8,123,324.7,123z
	 M325.3,80.6c-4.8,0-8.6,1.6-11.4,4.9s-4.2,7.7-4.2,13.5c0,5.5,1.4,9.9,4.2,13s6.6,4.8,11.3,4.8c4.8,0,8.5-1.6,11.1-4.7
	c2.6-3.1,3.9-7.6,3.9-13.3c0-5.8-1.3-10.3-3.9-13.4C333.8,82.2,330.1,80.6,325.3,80.6z"/>
<path class="st0" d="M381.1,59.6c-1.5-0.8-3.1-1.2-4.9-1.2c-5.2,0-7.8,3.3-7.8,9.9v7.2h10.9v6.4h-10.9v40.1h-7.4V81.8H353v-6.4h7.9
	v-7.5c0-4.9,1.4-8.7,4.2-11.6c2.8-2.8,6.3-4.2,10.5-4.2c2.3,0,4.1,0.3,5.4,0.8L381.1,59.6L381.1,59.6z"/>
<path class="st0" d="M410.4,121.5c-1.8,1-4.1,1.5-6.9,1.5c-8.1,0-12.2-4.5-12.2-13.6V81.8h-8v-6.4h8V64.1l7.4-2.4v13.8h11.7v6.4
	h-11.7V108c0,3.1,0.5,5.3,1.6,6.7c1.1,1.3,2.8,2,5.3,2c1.9,0,3.5-0.5,4.9-1.5V121.5z"/>
<path class="st0" d="M32.1,316.3V138.5h49.1c62.7,0,94,28.9,94,86.7c0,27.5-8.7,49.5-26.1,66.2c-17.4,16.7-40.7,25-69.9,25H32.1z
	 M53,157.3v140.1h26.5c23.3,0,41.5-6.2,54.4-18.7c13-12.5,19.5-30.2,19.5-53.1c0-45.6-24.2-68.3-72.7-68.3L53,157.3L53,157.3z"/>
<path class="st0" d="M217.9,157.1c-3.6,0-6.7-1.2-9.3-3.7c-2.6-2.5-3.8-5.6-3.8-9.4c0-3.8,1.3-7,3.8-9.5c2.6-2.5,5.7-3.8,9.3-3.8
	c3.7,0,6.9,1.3,9.5,3.8c2.6,2.5,3.9,5.7,3.9,9.5c0,3.6-1.3,6.7-3.9,9.3C224.8,155.8,221.6,157.1,217.9,157.1z M227.8,316.3h-20.3
	v-127h20.3V316.3z"/>
<path class="st0" d="M335.2,209.9c-3.6-2.7-8.7-4.1-15.4-4.1c-8.7,0-15.9,4.1-21.8,12.3c-5.8,8.2-8.7,19.3-8.7,33.5v64.7H269v-127
	h20.3v26.2h0.5c2.9-8.9,7.3-15.9,13.3-20.9c6-5,12.6-7.5,20-7.5c5.3,0,9.3,0.6,12.2,1.7V209.9z"/>
<path class="st0" d="M456,257.9h-89.7c0.3,14.1,4.1,25.1,11.4,32.7c7.3,7.7,17.3,11.5,30,11.5c14.3,0,27.5-4.7,39.4-14.1v19.1
	c-11.2,8.1-25.9,12.2-44.3,12.2c-17.9,0-32-5.8-42.3-17.3c-10.3-11.5-15.4-27.8-15.4-48.7c0-19.8,5.6-35.9,16.8-48.3
	c11.2-12.4,25.1-18.7,41.7-18.7s29.5,5.4,38.6,16.1c9.1,10.8,13.6,25.7,13.6,44.8L456,257.9L456,257.9z M435.2,240.7
	c-0.1-11.7-2.9-20.9-8.5-27.4c-5.6-6.5-13.3-9.8-23.3-9.8c-9.6,0-17.7,3.4-24.4,10.3s-10.8,15.8-12.4,26.9H435.2z"/>
<path class="st0" d="M573.4,310.5c-9.8,5.9-21.3,8.8-34.7,8.8c-18.1,0-32.7-5.9-43.8-17.7c-11.1-11.8-16.7-27.1-16.7-45.8
	c0-20.9,6-37.7,18-50.4c12-12.7,28-19,48-19c11.2,0,21,2.1,29.5,6.2v20.8c-9.4-6.6-19.5-9.9-30.3-9.9c-13,0-23.6,4.7-31.9,14
	c-8.3,9.3-12.5,21.5-12.5,36.6c0,14.9,3.9,26.6,11.7,35.2c7.8,8.6,18.3,12.9,31.4,12.9c11.1,0,21.5-3.7,31.3-11L573.4,310.5
	L573.4,310.5z"/>
<path class="st0" d="M663,315.1c-4.8,2.6-11.1,4-19,4c-22.2,0-33.4-12.4-33.4-37.2v-75.2h-21.8v-17.4h21.8v-31l20.3-6.6v37.6h32
	v17.4h-32v71.6c0,8.5,1.4,14.6,4.3,18.2c2.9,3.6,7.7,5.5,14.4,5.5c5.1,0,9.6-1.4,13.3-4.2V315.1z"/>
<path class="st0" d="M815.7,316.3h-25.4l-40.9-68.1c-1.2-2.1-2.6-5-4.1-8.8h-0.5c-0.8,1.9-2.2,4.8-4.2,8.8l-42.2,68.1h-25.5
	l59.5-89.4l-54.8-88.4h25.5l36.3,62.5c2.4,4.1,4.5,8.3,6.3,12.4h0.5c2.6-5.5,5-9.8,6.9-12.9l37.8-62H815L759,226.7L815.7,316.3z"/>
<path class="st0" d="M427.2,86.9c-3.4,0-6.4-1.2-8.8-3.6c-2.4-2.4-3.6-5.4-3.6-8.8s1.2-6.4,3.6-8.8c2.4-2.4,5.4-3.6,8.8-3.6
	c3.4,0,6.4,1.2,8.8,3.6c2.4,2.4,3.6,5.4,3.6,8.8s-1.2,6.4-3.6,8.8C433.5,85.7,430.6,86.9,427.2,86.9z M427.2,63.4
	c-3,0-5.6,1.1-7.8,3.2c-2.1,2.1-3.2,4.7-3.2,7.8s1.1,5.6,3.2,7.8c2.1,2.1,4.7,3.2,7.8,3.2c3,0,5.6-1.1,7.8-3.2s3.2-4.7,3.2-7.8
	s-1.1-5.6-3.2-7.8C432.8,64.5,430.2,63.4,427.2,63.4z M433.2,82.2h-2.7l-1.7-3.8c-0.9-1.9-1.8-2.9-2.8-2.9h-1.5v6.7h-2.2V66.4h4.5
	c1.8,0,3.3,0.4,4.3,1.2c1,0.8,1.5,1.8,1.5,3.2c0,1.1-0.4,2-1.1,2.8c-0.7,0.8-1.7,1.3-2.9,1.5v0.1c0.9,0.2,1.7,1.2,2.6,2.9
	L433.2,82.2z M424.5,68.3v5.4h2.4c2.2,0,3.3-0.9,3.3-2.7c0-1-0.3-1.7-0.9-2.1c-0.6-0.4-1.5-0.6-2.8-0.6H424.5z"/>
<path class="st0" d="M829.2,164.8c-3.4,0-6.4-1.2-8.8-3.6c-2.4-2.4-3.6-5.4-3.6-8.8c0-3.4,1.2-6.4,3.6-8.8c2.4-2.4,5.4-3.6,8.8-3.6
	c3.4,0,6.4,1.2,8.8,3.6c2.4,2.4,3.6,5.4,3.6,8.8c0,3.4-1.2,6.4-3.6,8.8C835.6,163.6,832.6,164.8,829.2,164.8z M829.2,141.3
	c-3,0-5.6,1.1-7.8,3.2c-2.1,2.1-3.2,4.7-3.2,7.8s1.1,5.6,3.2,7.8s4.7,3.2,7.8,3.2s5.6-1.1,7.8-3.2c2.1-2.1,3.2-4.7,3.2-7.8
	s-1.1-5.6-3.2-7.8C834.8,142.4,832.2,141.3,829.2,141.3z M835.2,160.1h-2.7l-1.7-3.8c-0.9-1.9-1.8-2.9-2.8-2.9h-1.5v6.7h-2.2v-15.8
	h4.4c1.8,0,3.3,0.4,4.3,1.2c1,0.8,1.5,1.8,1.5,3.2c0,1.1-0.4,2-1.1,2.8s-1.7,1.3-2.9,1.5v0.1c0.9,0.2,1.7,1.2,2.6,2.9L835.2,160.1z
	 M826.5,146.2v5.4h2.4c2.2,0,3.3-0.9,3.3-2.7c0-1-0.3-1.7-0.9-2.1c-0.6-0.4-1.5-0.6-2.8-0.6C828.5,146.2,826.5,146.2,826.5,146.2z"
	/>
</svg>
