<?xml version="1.0" encoding="utf-8"?>
<!-- Generator: Adobe Illustrator 22.0.1, SVG Export Plug-In . SVG Version: 6.00 Build 0)  -->
<svg version="1.1" id="Layer_1" xmlns="http://www.w3.org/2000/svg" xmlns:xlink="http://www.w3.org/1999/xlink" x="0px" y="0px"
	 viewBox="0 0 512 512" style="enable-background:new 0 0 512 512;" xml:space="preserve">
<style type="text/css">
	.st0{fill:#FFFFFF;}
</style>
<title>HTML5 Logo</title>
<path class="st0" d="M108.4,0h23v22.8h21.2V0h23v69h-23V46h-21v23h-23.2 M206,23h-20.3V0h63.7v23H229v46h-23 M259.5,0h24.1
	l14.8,24.3L313.2,0h24.1v69h-23V34.8l-16.1,24.8l-16.1-24.8V69h-22.6 M348.7,0h23v46.2h32.6V69h-55.6"/>
<path class="st0" d="M74.6,100.6l33,370.4l148.1,41l148.7-41.2l33-370.2H74.6z M365.4,221.7H256h-0.2h-64l4.2,46.5h59.8h0.2h105.3
	l-12.5,139.4L256,433.3v0.3l-93.2-26l-6.4-71.3H202l3.2,36.3l50.7,13.6l50.6-13.6l5.3-59h-56v-0.1H154.4L142,176.3h113.8h0.2h113.6
	L365.4,221.7z"/>
</svg>
