<?xml version="1.0" encoding="UTF-8" standalone="no"?>
<!-- Generator: Adobe Illustrator 16.0.0, SVG Export Plug-In . SVG Version: 6.00 Build 0)  -->
<svg xmlns:dc="http://purl.org/dc/elements/1.1/" xmlns:cc="http://creativecommons.org/ns#" xmlns:rdf="http://www.w3.org/1999/02/22-rdf-syntax-ns#" xmlns:svg="http://www.w3.org/2000/svg" xmlns="http://www.w3.org/2000/svg" xmlns:sodipodi="http://sodipodi.sourceforge.net/DTD/sodipodi-0.dtd" xmlns:inkscape="http://www.inkscape.org/namespaces/inkscape" version="1.1" x="0px" y="0px" width="256" height="256" viewBox="0 0 256 256" enable-background="new 0 0 288 288" xml:space="preserve" id="svg2" inkscape:version="0.48.4 r9939" sodipodi:docname="linux.svg"><metadata id="metadata18"><rdf:RDF><cc:Work rdf:about=""><dc:format>image/svg+xml</dc:format><dc:type rdf:resource="http://purl.org/dc/dcmitype/StillImage"/><dc:title/></cc:Work></rdf:RDF></metadata><defs id="defs16"/><sodipodi:namedview pagecolor="#ffffff" bordercolor="#666666" borderopacity="1" objecttolerance="10" gridtolerance="10" guidetolerance="10" inkscape:pageopacity="0" inkscape:pageshadow="2" inkscape:window-width="1920" inkscape:window-height="1027" id="namedview14" showgrid="false" inkscape:zoom="0.81944444" inkscape:cx="146.44068" inkscape:cy="144" inkscape:window-x="0" inkscape:window-y="31" inkscape:window-maximized="1" inkscape:current-layer="svg2"/><g id="g3785" transform="matrix(0.93191118,0,0,0.93191118,8.7053596,8.9796212)"><g transform="matrix(0.79674886,0,0,0.79674886,13.238287,15.243978)" style="fill:#ffffff" id="Linux_penguin_icon"><g style="fill:#ffffff" id="g5"><path style="fill:#ffffff" id="path7" d="m 233.262,228.856 c -0.955,-0.462 -0.784,-1.073 -0.531,-1.864 0.969,-3.052 1.67,-6.183 1.984,-9.355 0.843,-8.47 -0.246,-16.745 -2.847,-24.842 -4.605,-14.349 -12.664,-26.713 -22.017,-38.325 -4.654,-5.778 -9.466,-11.438 -13.32,-17.808 -3.005,-4.967 -5.198,-10.229 -6.015,-16.06 -0.615,-4.402 -0.042,-8.794 -0.348,-12.698 0.121,-7.091 -0.022,-13.682 -0.777,-20.257 -0.699,-6.119 -1.82,-12.129 -4.099,-17.876 -4.083,-10.312 -11.086,-17.603 -22.004,-20.476 -9.192,-2.419 -18.408,-1.893 -27.502,0.739 -8.619,2.494 -15.217,7.559 -19.444,15.56 -2.85,5.393 -4.17,11.189 -4.824,17.225 -0.682,6.289 -0.541,12.569 -0.223,18.846 0.374,7.331 1.131,14.609 -0.071,21.974 -1.732,10.619 -6.035,19.93 -12.807,28.24 -9.885,12.125 -18.554,25.039 -24.604,39.556 -4.39,10.534 -7.208,21.365 -5.674,32.931 0.069,0.513 -0.182,0.821 -0.506,1.141 -2.253,2.222 -4.009,4.847 -5.856,7.387 -1.725,2.373 -3.878,4.041 -6.668,4.984 -2.193,0.74 -4.373,1.562 -6.465,2.546 -0.667,0.314 -1.286,0.673 -1.88,1.051 1.115,0.817 2.238,1.623 3.375,2.413 1.557,-0.731 3.166,-1.384 4.812,-1.87 4.411,-1.305 7.835,-3.854 10.428,-7.636 1.386,-2.021 2.806,-4.026 4.502,-5.812 3.795,-3.998 8.146,-4.636 12.936,-1.844 3.178,1.849 5.448,4.627 7.498,7.595 2.613,3.78 4.868,7.787 6.677,11.998 2.894,6.727 7.135,12.526 11.737,18.133 1.479,1.802 2.942,3.616 4.331,5.482 1.744,0.316 3.496,0.611 5.259,0.871 -1.762,-2.527 -3.677,-4.966 -5.622,-7.523 0.876,-0.175 1.642,-0.299 2.394,-0.479 5.092,-1.233 7.17,-4.911 5.642,-9.95 -1.199,-3.949 -3.569,-7.189 -6.279,-10.196 -4.675,-5.186 -10.223,-9.315 -16.125,-12.98 -4.502,-2.795 -8.436,-6.138 -11.049,-10.849 -3.325,-5.989 -3.85,-12.433 -2.777,-19.013 1.886,-11.563 7.366,-21.653 13.338,-31.512 0.081,-0.132 0.261,-0.208 0.431,-0.334 0.285,0.898 -0.301,1.499 -0.611,2.146 -2.721,5.722 -6.021,11.165 -7.961,17.253 -2.571,8.06 -3.616,16.153 -0.707,24.354 0.875,2.463 2.046,4.798 3.975,7.07 0.354,-3.084 0.641,-5.857 0.993,-8.619 1.161,-9.095 3.916,-17.712 7.757,-26.014 5.111,-11.047 10.378,-22.029 14.159,-33.64 2.037,-6.251 3.589,-12.607 4.146,-19.354 2.637,1.42 4.997,2.947 6.963,4.973 7.212,7.417 16.438,6.862 23.482,2.733 3.845,-2.253 7.614,-4.589 11.844,-6.142 2.971,-1.088 5.408,-3.145 7.566,-5.8 5.002,17.218 11.278,33.632 19.465,49.299 4.961,9.491 8.882,19.365 10.844,29.945 0.178,0.959 0.525,1.543 1.687,1.609 1.171,0.07 2.37,0.054 3.536,0.449 1.2,0.405 1.253,-0.734 1.486,-1.447 2.085,-6.346 1.976,-12.755 0.267,-19.134 -2.354,-8.782 -6.587,-16.532 -13.064,-22.993 -0.595,-0.596 -1.36,-1.139 -1.315,-2.292 0.767,-0.061 1.107,0.536 1.501,0.931 9.089,9.17 15.208,19.943 17.263,32.787 0.644,4.034 0.619,8.157 -0.309,12.192 -0.292,1.262 -0.012,1.848 1.223,2.404 3.96,1.784 7.801,3.811 11.011,6.814 2.418,2.26 3.905,4.923 3.323,8.381 -0.113,0.668 -0.112,1.438 -1.169,1.317 -1.138,-0.128 -0.597,-0.969 -0.555,-1.44 0.206,-2.502 -0.885,-4.463 -2.67,-5.962 -5.563,-4.671 -11.968,-7.624 -19.2,-8.434 -4.83,-0.542 -8.223,2.167 -9.229,6.947 -0.296,1.406 -0.838,2.31 -2.252,3.04 -5.48,2.832 -7.81,7.935 -9.125,13.612 -1.194,5.155 -1.73,10.404 -1.823,15.692 -0.105,6.158 -1.718,12.012 -3.458,17.848 -0.036,0.119 -0.09,0.213 -0.139,0.313 1.446,-0.316 2.887,-0.646 4.318,-1.003 0.858,-2.917 1.688,-5.843 2.296,-8.827 0.892,-4.402 0.677,-8.884 1.118,-13.315 0.47,-4.749 0.962,-9.487 2.674,-13.992 1.351,-3.561 3.279,-5.756 5.875,-6.75 0.301,2.889 0.993,5.652 2.363,8.215 3.112,5.827 8.098,7.875 14.397,5.901 4.275,-1.339 8.021,-3.6 11.249,-6.685 0.784,-0.751 1.549,-1.138 2.642,-1.112 1.821,0.04 3.683,-0.196 5.456,0.248 3.244,0.818 5.521,2.806 6.771,5.981 0.534,1.358 0.939,2.749 1.296,4.154 1.113,-0.817 2.217,-1.649 3.31,-2.495 -1.216,-4.35 -3.26,-8.142 -7.679,-10.271 z M 149.716,87.178 c 4.967,-4.698 12.076,-3.922 16.327,1.57 4.626,5.978 5.001,15.85 0.887,22.186 -0.61,0.94 -1.145,1.286 -2.267,0.713 -1.387,-0.707 -3.418,-0.797 -4.196,-1.865 -0.737,-1.013 0.977,-2.528 1.23,-3.987 0.568,-3.237 0.547,-6.375 -1.134,-9.299 -2.194,-3.823 -6.125,-3.947 -8.592,-0.303 -1.724,2.545 -2.138,5.427 -2.079,8.635 -1.515,-0.54 -2.859,-1.034 -4.213,-1.495 -0.592,-0.202 -0.93,-0.506 -0.986,-1.191 -0.458,-5.711 0.75,-10.925 5.023,-14.964 z m -30.563,3.377 c 3.115,-5.005 8.526,-5.337 12.125,-0.692 2.82,3.639 3.678,7.896 3.627,12.4 -0.005,0.571 -0.211,0.909 -0.77,1.132 -1.328,0.534 -2.627,1.138 -3.955,1.721 -0.147,-2.614 -0.4,-5.166 -1.917,-7.376 -0.807,-1.175 -1.781,-2.228 -3.347,-2.083 -1.545,0.143 -2.453,1.271 -2.962,2.607 -1.486,3.891 -1.194,7.646 1.217,11.11 0.483,0.695 0.963,1.235 -0.082,1.707 -0.847,0.382 -1.483,2.125 -2.721,0.486 -2.778,-3.681 -3.693,-7.899 -3.58,-12.406 0.079,-3.057 0.728,-5.974 2.365,-8.606 z m 49.805,33.456 c -1.693,3.116 -4.35,5.3 -7.554,6.548 -4.303,1.675 -8.225,3.975 -12.153,6.337 -4.342,2.607 -9.053,3.189 -13.958,1.914 -2.313,-0.602 -4.171,-2.024 -5.883,-3.614 -2.081,-1.929 -4.261,-3.703 -6.709,-5.165 -2.18,-1.303 -4.07,-2.97 -5.343,-5.218 -1.728,-3.051 -1.177,-5.682 1.636,-7.77 3.433,-2.548 6.841,-5.11 10.021,-7.992 3.126,-2.832 6.877,-4.342 11.203,-4.196 3.324,0.01 6.509,0.866 9.312,2.575 4.271,2.604 8.848,4.412 13.52,6.072 1.354,0.482 2.671,1.08 3.865,1.919 3.065,2.152 3.845,5.278 2.043,8.59 z m 46.318,104.136 c -2.666,2.892 -5.918,4.87 -9.853,5.436 -2.476,0.356 -4.568,-0.626 -6.13,-2.57 -2.136,-2.654 -2.906,-5.783 -2.945,-9.127 0,-0.44 -0.02,-0.879 0.002,-1.319 0.23,-4.543 2.799,-6.604 7.257,-5.77 4.147,0.775 7.898,2.493 11.153,5.149 2.876,2.345 3.039,5.466 0.516,8.201 z" inkscape:connector-curvature="0"/><path style="fill:#ffffff" id="path9" d="m 163.677,119.38 c -2.166,0.551 -4.019,1.765 -5.909,2.884 -3.783,2.242 -7.525,4.554 -11.644,6.171 -7.282,2.854 -13.933,1.729 -19.979,-3.124 -1.863,-1.495 -3.581,-3.168 -5.401,-4.719 -0.485,-0.413 -1.164,-1.221 -1.738,-0.49 -0.509,0.646 -0.544,1.606 0.319,2.336 1.825,1.546 3.528,3.237 5.397,4.728 3.974,3.168 8.413,5.22 13.614,5.256 4.327,0.018 8.229,-1.491 12.076,-3.256 4.85,-2.226 8.961,-5.826 14.103,-7.515 0.846,-0.278 0.64,-1.163 0.52,-1.821 -0.157,-0.854 -0.827,-0.585 -1.358,-0.45 z" inkscape:connector-curvature="0"/></g></g><g transform="matrix(0.79674886,0,0,0.79674886,13.238287,17.243978)" style="stroke:#ffffff;stroke-width:21.54884338;stroke-miterlimit:4;stroke-dasharray:none" id="Circle"><ellipse style="fill:none;stroke:#ffffff;stroke-width:21.54884338;stroke-miterlimit:4;stroke-dasharray:none" id="ellipse12" ry="133.79201" rx="137.11301" cy="143.881" cx="143.853" stroke-miterlimit="10" clip-rule="evenodd" sodipodi:cx="143.853" sodipodi:cy="143.881" sodipodi:rx="137.11301" sodipodi:ry="133.79201" d="m 280.966,143.881 c 0,73.89128 -61.38758,133.792 -137.113,133.792 -75.725426,0 -137.1130098,-59.90072 -137.1130098,-133.792 0,-73.891289 61.3875838,-133.792011 137.1130098,-133.792011 75.72542,0 137.113,59.900722 137.113,133.792011 z"/></g></g></svg>