<?xml version="1.0" encoding="utf-8"?>
<!-- Generator: Adobe Illustrator 22.0.1, SVG Export Plug-In . SVG Version: 6.00 Build 0)  -->
<svg version="1.1" id="Layer_1" xmlns="http://www.w3.org/2000/svg" xmlns:xlink="http://www.w3.org/1999/xlink" x="0px" y="0px"
	 viewBox="0 0 2500 760" style="enable-background:new 0 0 2500 760;" xml:space="preserve">
<style type="text/css">
	.st0{fill:#FFFFFF;}
</style>
<path class="st0" d="M2440.1,613.9l-145.6-197.6l-145.4,197.6h-59.9l175-238.7l-159.8-217h59.9l130.3,177l130.3-177h59.9l-159.7,217
	L2500,613.9L2440.1,613.9z M1305.6,613.8l-175.2-238.7l159.8-217h-59.9l-130.3,177l-130.2-177h-59.8l159.8,217L894.7,613.8h60
	l145.4-197.5l145.6,197.5H1305.6z"/>
<path class="st0" d="M1638.8,392.3c-9-7.7-19.1-14.1-29.9-19c33.8-17.9,54.8-53,54.8-91.3c0-29.2-10.7-124-148.1-124h-185.1v196.5
	h-61.6c-8,10.4-26.2,35.5-33.1,45.7h94.7v213.5l185.1,0c100.3,0,162.5-50.9,162.5-133C1678.1,444.9,1664.6,414.4,1638.8,392.3
	 M1381.7,205.7h133.9c36.2,0,96.9,9,96.9,72.4c0,47.9-35.3,76.5-96.9,76.5h-133.9V205.7L1381.7,205.7z M1515.5,566.3h-133.9V400.4
	h133.9c50.8,0,111.5,14,111.5,79.4C1627.1,555,1557.2,566.3,1515.5,566.3 M1918.8,147.6c-128,0-217.5,97.9-217.5,238.1
	c0,140.4,89.5,238.2,217.5,238.2c127.9,0,217.1-97.8,217.1-238.2C2136,245.5,2046.7,147.6,1918.8,147.6 M1918.8,575.7
	c-97.5,0-165.9-78.2-165.9-190s68.3-190,165.9-190c97.4,0,165.3,78.1,165.3,190S2016.2,575.7,1918.8,575.7 M113.4,109.3l-0.4,0.3v0
	C40.6,181-0.1,278.4,0,380c-0.1,83.2,27.2,164,77.6,230.1c0.5,0.6,1.3,1,2,0.6c0.7-0.4,0.7-1.2,0.4-2
	c-29-89.6,119.1-306.6,195.6-397.6c0.2-0.3,0.6-0.7,0.6-1.1c0-0.5-0.4-0.9-0.7-1.2c-128.7-128.1-163-98.8-162.5-99.2 M646.4,109.3
	l0.4,0.3v0c72.4,71.3,113.1,168.7,113,270.3c0.1,83.2-27.2,164-77.6,230.1c-0.5,0.6-1.3,1-2,0.6c-0.6-0.4-0.7-1.2-0.4-2
	c29-89.6-118.9-306.8-195.4-397.8c-0.3-0.3-0.6-0.7-0.6-1.1c0-0.6,0.3-1,0.7-1.3c128.7-128.1,162.8-98.6,162.4-99 M379.9,0.1
	c76.6,0,139.7,21,197.9,55.6c0.7,0.4,0.9,1.2,0.6,1.9c-0.3,0.7-1.1,0.8-1.8,0.6c-73.5-15.9-185.3,47.7-195.9,54
	c-0.2,0.2-0.5,0.3-0.8,0.3c-0.4,0-0.6-0.2-0.8-0.3C351,96.1,247.7,42,182.6,58.6c-0.7,0.2-1.5,0-1.8-0.7c-0.3-0.7,0-1.5,0.6-1.9
	C239.6,21.1,303.4,0.1,379.9,0.1 M379.9,304.8c0.4,0,0.9,0.4,1.2,0.6c113.7,86.4,308.2,300.1,248.8,360.6l0.1-0.1l0,0.1h-0.1
	c-69.1,60.7-158,94.1-250,94c-92,0.1-180.9-33.3-250.1-94l-0.1-0.1l0.1,0.1C70.5,605.5,265,391.8,378.6,305.4
	C378.9,305.1,379.4,304.8,379.9,304.8"/>
</svg>
