<?xml version="1.0" encoding="UTF-8"?>
<!-- Generator: Adobe Illustrator 18.1.1, SVG Export Plug-In . SVG Version: 6.00 Build 0)  -->
<svg version="1.1" id="Capa_1" xmlns="http://www.w3.org/2000/svg" xmlns:xlink="http://www.w3.org/1999/xlink" x="0px" y="0px" viewBox="-461 186 216 146" enable-background="new -461 186 216 146" xml:space="preserve">
<g>
	<path fill="#F5F5F5" d="M-402,235.1c-2.3,0-4.3,0.8-5.9,2.4c-1.6,1.6-2.4,3.6-2.4,5.9v35c0,2.3,0.8,4.3,2.4,5.9s3.6,2.4,5.9,2.4   c2.3,0,4.3-0.8,5.9-2.4c1.6-1.6,2.4-3.6,2.4-5.9v-35c0-2.3-0.8-4.2-2.4-5.9C-397.7,235.9-399.7,235.1-402,235.1z"/>
	<path fill="#F5F5F5" d="M-390.4,290.9c0,2.5,0.9,4.6,2.6,6.4s3.9,2.6,6.4,2.6h6l0.1,18.5c0,2.3,0.8,4.3,2.4,5.9s3.6,2.4,5.9,2.4   c2.3,0,4.3-0.8,5.9-2.4s2.4-3.6,2.4-5.9v-18.5h11.2v18.5c0,2.3,0.8,4.3,2.4,5.9c1.6,1.6,3.6,2.4,5.9,2.4c2.3,0,4.3-0.8,5.9-2.4   c1.6-1.6,2.4-3.6,2.4-5.9v-18.5h6.1c2.4,0,4.5-0.9,6.3-2.6c1.7-1.7,2.6-3.9,2.6-6.4v-54.3h-74.8L-390.4,290.9L-390.4,290.9z"/>
	<path fill="#F5F5F5" d="M-334.5,203.7l5.8-10.7c0.4-0.7,0.2-1.2-0.4-1.6c-0.7-0.3-1.2-0.2-1.6,0.5l-5.9,10.8   c-5.2-2.3-10.6-3.4-16.4-3.4c-5.8,0-11.2,1.1-16.4,3.4l-5.9-10.8c-0.4-0.7-0.9-0.8-1.6-0.5c-0.7,0.4-0.8,0.9-0.4,1.6l5.8,10.7   c-5.9,3-10.5,7.2-14,12.5c-3.5,5.3-5.2,11.2-5.2,17.6h75.4c0-6.4-1.7-12.2-5.2-17.6C-324.1,210.8-328.7,206.7-334.5,203.7z    M-368,219.2c-0.6,0.6-1.4,0.9-2.2,0.9c-0.9,0-1.6-0.3-2.2-0.9c-0.6-0.6-0.9-1.4-0.9-2.2c0-0.9,0.3-1.6,0.9-2.2s1.3-0.9,2.2-0.9   c0.9,0,1.6,0.3,2.2,0.9s0.9,1.4,0.9,2.2C-367,217.8-367.3,218.6-368,219.2z M-333.6,219.2c-0.6,0.6-1.3,0.9-2.2,0.9   s-1.6-0.3-2.2-0.9c-0.6-0.6-0.9-1.4-0.9-2.2c0-0.9,0.3-1.6,0.9-2.2c0.6-0.6,1.4-0.9,2.2-0.9s1.6,0.3,2.2,0.9   c0.6,0.6,0.9,1.4,0.9,2.2C-332.7,217.8-333,218.6-333.6,219.2z"/>
	<path fill="#F5F5F5" d="M-298.1,237.5c-1.6-1.6-3.6-2.4-5.9-2.4c-2.3,0-4.2,0.8-5.9,2.4c-1.6,1.6-2.4,3.6-2.4,5.9v35   c0,2.3,0.8,4.3,2.4,5.9c1.6,1.6,3.6,2.4,5.9,2.4c2.3,0,4.3-0.8,5.9-2.4c1.6-1.6,2.4-3.6,2.4-5.9v-35   C-295.6,241.1-296.5,239.1-298.1,237.5z"/>
</g>
</svg>