<?xml version="1.0" encoding="utf-8"?>
<!-- Generator: Adobe Illustrator 22.0.1, SVG Export Plug-In . SVG Version: 6.00 Build 0)  -->
<svg version="1.1" id="Layer_1" xmlns="http://www.w3.org/2000/svg" xmlns:xlink="http://www.w3.org/1999/xlink" x="0px" y="0px"
	 viewBox="0 0 1200 500" style="enable-background:new 0 0 1200 500;" xml:space="preserve">
<style type="text/css">
	.st0{fill:#FFFFFF;}
</style>
<g>
	<g>
		<path class="st0" d="M182,212.3c3.9-11.8,9.6-22.2,17.3-31.3c7.7-9.1,17.3-16.3,28.8-21.7c11.5-5.4,24.8-8.1,40-8.1
			c15.2,0,28.6,2.7,40,8.1c11.5,5.4,21.1,12.6,28.8,21.7s13.5,19.5,17.3,31.3c3.9,11.8,5.8,24,5.8,36.7c0,12.7-1.9,25-5.8,36.8
			c-3.9,11.8-9.6,22.2-17.3,31.3c-7.7,9.1-17.3,16.3-28.8,21.6c-11.5,5.3-24.8,8-40,8c-15.2,0-28.6-2.7-40-8
			c-11.5-5.3-21.1-12.5-28.8-21.6c-7.7-9.1-13.5-19.5-17.3-31.3c-3.9-11.8-5.8-24-5.8-36.8S178.2,224.1,182,212.3z M205.5,277
			c2.5,9.2,6.5,17.4,11.8,24.7c5.4,7.3,12.3,13.2,20.7,17.7c8.4,4.5,18.5,6.7,30.1,6.7c11.7,0,21.7-2.2,30.1-6.7
			c8.4-4.5,15.3-10.3,20.7-17.7c5.4-7.3,9.3-15.6,11.8-24.7c2.5-9.2,3.8-18.5,3.8-27.9s-1.3-18.7-3.8-27.9
			c-2.5-9.2-6.5-17.4-11.8-24.7c-5.4-7.3-12.3-13.2-20.7-17.7c-8.4-4.5-18.5-6.7-30.1-6.7c-11.7,0-21.7,2.2-30.1,6.7
			c-8.4,4.5-15.3,10.3-20.7,17.7c-5.4,7.3-9.3,15.6-11.8,24.7c-2.5,9.2-3.8,18.5-3.8,27.9S203,267.9,205.5,277z"/>
		<path class="st0" d="M397.9,223.5v16.1h0.4c3.3-6.6,8.5-11.4,15.5-14.4c7.1-3,14.8-4.5,23.3-4.5c9.4,0,17.6,1.7,24.6,5.1
			c7,3.4,12.8,7.9,17.4,13.7c4.6,5.8,8.1,12.4,10.5,19.9c2.4,7.5,3.5,15.5,3.5,23.9c0,8.4-1.1,16.4-3.4,24
			c-2.3,7.5-5.7,14.1-10.4,19.7c-4.6,5.6-10.4,10-17.4,13.2c-7,3.2-15.1,4.8-24.4,4.8c-3,0-6.3-0.3-10-0.9c-3.7-0.6-7.3-1.6-11-3
			c-3.6-1.4-7-3.3-10.3-5.6c-3.2-2.4-5.9-5.3-8.1-8.9h-0.4v61.5h-20.2V223.5H397.9z M469.6,265.8c-1.5-5.3-3.8-10-6.8-14.2
			c-3.1-4.1-7-7.4-11.8-9.9c-4.8-2.5-10.4-3.7-16.8-3.7c-6.7,0-12.5,1.3-17.2,3.9c-4.7,2.6-8.5,6-11.5,10.2c-3,4.2-5.1,9-6.5,14.4
			c-1.3,5.4-2,10.8-2,16.3c0,5.8,0.7,11.5,2.1,16.9c1.4,5.5,3.6,10.2,6.7,14.4c3.1,4.1,7,7.5,11.9,10c4.9,2.5,10.7,3.8,17.6,3.8
			c6.9,0,12.6-1.3,17.3-3.9s8.3-6.1,11.2-10.4c2.8-4.3,4.9-9.2,6.1-14.7c1.3-5.5,1.9-11.2,1.9-17
			C471.9,276.5,471.1,271.1,469.6,265.8z"/>
		<path class="st0" d="M596.3,334.9c-9.1,6.7-20.6,10.1-34.5,10.1c-9.8,0-18.2-1.5-25.4-4.6c-7.2-3.1-13.2-7.4-18.1-12.9
			c-4.9-5.5-8.5-12.1-11-19.8c-2.4-7.7-3.8-16-4.1-25.1c0-9.1,1.4-17.3,4.3-24.9c2.8-7.5,6.8-14.1,11.9-19.6
			c5.1-5.5,11.2-9.8,18.2-12.9c7-3.1,14.7-4.6,23-4.6c10.9,0,19.9,2.2,27.1,6.6c7.2,4.4,12.9,10,17.3,16.7c4.3,6.8,7.3,14.2,9,22.1
			c1.7,8,2.3,15.6,2,22.8h-91.3c-0.2,5.2,0.5,10.2,1.9,14.8c1.4,4.7,3.7,8.8,6.8,12.4c3.1,3.6,7.1,6.5,12,8.6
			c4.9,2.1,10.6,3.2,17.2,3.2c8.5,0,15.4-1.9,20.8-5.8c5.4-3.8,9-9.7,10.7-17.5H614C611.3,318.1,605.4,328.2,596.3,334.9z
			 M591.4,258.5c-1.8-4.1-4.2-7.7-7.3-10.7c-3.1-3-6.7-5.4-10.8-7.1c-4.2-1.8-8.7-2.6-13.8-2.6c-5.2,0-9.8,0.9-14,2.6
			c-4.2,1.8-7.7,4.2-10.7,7.2c-3,3.1-5.3,6.6-7.1,10.7c-1.7,4.1-2.7,8.4-3.1,13h69.9C594.3,267,593.2,262.7,591.4,258.5z"/>
		<path class="st0" d="M648.4,223.5v18.9h0.4c8.4-14.4,21.6-21.7,39.8-21.7c8.1,0,14.8,1.1,20.1,3.2c5.4,2.2,9.7,5.1,13,9
			c3.3,3.8,5.7,8.4,7,13.7c1.3,5.3,2,11.2,2,17.6v78.4h-20.2V262c0-7.4-2.2-13.2-6.6-17.5c-4.4-4.3-10.5-6.5-18.2-6.5
			c-6.1,0-11.5,0.9-16,2.8c-4.5,1.8-8.2,4.5-11.2,7.8c-3,3.4-5.2,7.3-6.7,11.9c-1.5,4.5-2.2,9.5-2.2,14.9v67.3h-20.2V223.5H648.4z"
			/>
		<path class="st0" d="M870.4,341.4c-9.1,3.8-18.3,5.6-27.6,5.6c-14.7,0-27.9-2.5-39.6-7.5c-11.7-5-21.6-11.9-29.6-20.6
			c-8-8.8-14.2-19-18.5-30.9c-4.3-11.8-6.4-24.6-6.4-38.2c0-14,2.1-27,6.4-39c4.3-12,10.4-22.5,18.5-31.4c8-8.9,17.9-15.9,29.6-21
			c11.7-5.1,24.9-7.6,39.6-7.6c9.8,0,19.4,1.4,28.6,4.3c9.2,2.9,17.5,7.2,24.9,12.8c7.4,5.6,13.5,12.5,18.4,20.8
			c4.8,8.2,7.8,17.7,8.9,28.3h-40.2c-2.5-10.5-7.3-18.3-14.5-23.6c-7.2-5.2-15.8-7.9-26-7.9c-9.5,0-17.5,1.8-24.1,5.4
			s-12,8.4-16.1,14.4c-4.1,6-7.1,12.9-9,20.6c-1.9,7.7-2.8,15.7-2.8,23.9c0,7.9,0.9,15.5,2.8,23c1.9,7.4,4.9,14.1,9,20.1
			c4.1,6,9.5,10.7,16.1,14.3c6.6,3.6,14.7,5.4,24.2,5.4c14,0,24.7-3.4,32.4-10.3c7.6-6.9,12-16.9,13.3-29.9H846v-30.8h80.4v101.2
			h-26.7l-4.3-21.2C887.9,331,879.5,337.6,870.4,341.4z"/>
		<path class="st0" d="M994.7,155.6v152.4h93.4v34.7H952.7V155.6H994.7z"/>
	</g>
	<path class="st0" d="M796,365.9c-64.3,38.2-160.6,60-268,60c-193.5,0-350.5-78.8-350.5-175.9S334.4,74.1,528,74.1
		c107.8,0,204.5,22.1,268.8,60.6C726.6,70.3,600.8,25,456.9,25C236.6,25,58,125.7,58,249.9C58,374.2,236.5,475,456.9,475
		C600.1,475,725.6,429.9,796,365.9z"/>
</g>
<g>
	<path class="st0" d="M1143.8,325.4c0,3.1-0.8,6.1-2.4,8.8s-3.7,4.9-6.4,6.4c-2.7,1.6-5.6,2.3-8.8,2.3c-3.1,0-6-0.8-8.8-2.3
		c-2.7-1.6-4.9-3.7-6.4-6.4c-1.6-2.7-2.4-5.6-2.4-8.8c0-3.1,0.8-6,2.4-8.8c1.6-2.7,3.7-4.9,6.4-6.4c2.7-1.6,5.6-2.3,8.8-2.3
		c3.1,0,6.1,0.8,8.8,2.3c2.7,1.6,4.9,3.7,6.4,6.4C1143.1,319.4,1143.8,322.3,1143.8,325.4z M1140.4,325.4c0-3.9-1.4-7.2-4.1-10
		c-2.8-2.8-6.1-4.1-10-4.1c-3.9,0-7.2,1.4-10,4.1c-2.8,2.8-4.1,6.1-4.1,10s1.4,7.2,4.1,10c2.8,2.8,6.1,4.1,10,4.1
		c3.9,0,7.2-1.4,10-4.1C1139.1,332.7,1140.4,329.3,1140.4,325.4z M1118.3,316h8.4c2.4,0,4.1,0.5,5.2,1.4c1.1,1,1.6,2.2,1.6,3.9
		c0,1.3-0.4,2.3-1.2,3.3c-0.8,0.9-2.1,1.6-3.8,2c0.7,0.3,1.2,0.6,1.6,0.9c0.5,0.4,1,1.1,1.5,1.9c0,0.1,1,1.9,3,5.4h-5.5
		c-1.8-3.6-3-5.7-3.6-6.4c-0.6-0.7-1.2-1-1.8-1c-0.1,0-0.3,0-0.6,0.1v7.4h-4.7L1118.3,316L1118.3,316z M1123,324h2
		c1.3,0,2.3-0.2,2.9-0.7c0.6-0.4,0.8-1,0.8-1.7c0-0.7-0.3-1.3-0.8-1.7c-0.5-0.4-1.4-0.7-2.7-0.7h-2.2L1123,324L1123,324z"/>
</g>
</svg>
