<?xml version="1.0" encoding="utf-8"?>
<!-- Generator: Adobe Illustrator 22.0.1, SVG Export Plug-In . SVG Version: 6.00 Build 0)  -->
<svg version="1.1" id="Layer_1" xmlns="http://www.w3.org/2000/svg" xmlns:xlink="http://www.w3.org/1999/xlink" x="0px" y="0px"
	 viewBox="0 0 502.9 104.8" style="enable-background:new 0 0 502.9 104.8;" xml:space="preserve">
<style type="text/css">
	.st0{fill:none;}
	.st1{fill:#FFFFFF;}
</style>
<image style="display:none;overflow:visible;enable-background:new    ;" width="595" height="124" xlink:href="A9050C89.png"  transform="matrix(0.8484 0 0 0.8484 -0.9282 0.1738)">
</image>
<g>
	<g>
		<g>
			<path class="st0" d="M502.3,24.1H180.8v64.4v0.6h322.1V24.1H502.3z M489.1,81.2h5.6V82h-2.3v6.4h-1V82h-2.3L489.1,81.2
				L489.1,81.2z"/>
			<polygon class="st1" points="491.4,88.5 492.4,88.5 492.4,82 494.7,82 494.7,81.2 489.1,81.2 489.1,82 491.4,82 			"/>
		</g>
		<g>
			<path class="st0" d="M502.3,24.1H180.8v64.4v0.6h322.1V24.1H502.3z M495.6,81.2h1.4l2.1,6.2l2-6.2h1.2v7.2h-0.8v-5.9l-2,5.9h-1
				l-2-5.9v5.9h-1L495.6,81.2L495.6,81.2z"/>
			<polygon class="st1" points="496.6,82.6 498.6,88.5 499.5,88.5 501.5,82.6 501.5,88.5 502.3,88.5 502.3,81.2 501.1,81.2 
				499.1,87.4 497,81.2 495.6,81.2 495.6,88.5 496.6,88.5 			"/>
		</g>
		<path class="st1" d="M335.4,71.1v-30c0-6.1,2.9-10.5,8.9-10.5h37.5c0.2,0,0.5-0.2,0.5-0.5v-6c0-0.1,0-0.1,0-0.2h-45.9
			c-10,1.3-14.8,8.2-14.8,17.1v30c0,6.1-2.9,10.5-8.9,10.5H273c-0.2,0-0.5,0.2-0.5,0.5v6c0,0.2,0.2,0.4,0.3,0.5h45
			C329.6,88.2,335.4,80.7,335.4,71.1z"/>
		<path class="st1" d="M181.1,88.5h13.2c0.2-0.1,0.3-0.3,0.3-0.5V68.9c0-6.1,3.5-10.3,8.5-10.3h54.3c12.2,0,18.2-7.5,18.2-17.4
			c0-8.9-4.9-15.8-14.8-17.1h-79.9c0,0-0.1,0.1-0.1,0.2v6c0,0.3,0.1,0.5,0.4,0.5h71.6c6.1,0,8.9,4.4,8.9,10.5
			c0,6.1-2.9,10.5-8.9,10.5h-56.6c-8.8,0-15.4,7.5-15.4,17.3V88C180.8,88.3,180.9,88.4,181.1,88.5z"/>
		<g>
			<path class="st0" d="M393.7,74.6h60.5c0.2,0,0.5-0.2,0.5-0.5V37c0-0.8-0.8-0.9-1.1-0.6l-60.2,37.2c-0.4,0.2-0.5,0.5-0.5,0.8
				C393,74.5,393.2,74.6,393.7,74.6z"/>
			<path class="st1" d="M382.1,81.6h72.1c0.2,0,0.4,0.2,0.4,0.3V88c0,0.3,0.2,0.5,0.5,0.5h13c0.2,0,0.4-0.2,0.4-0.5v-6
				c0-0.2,0.2-0.5,0.5-0.5h12.9c0.3,0,0.5-0.2,0.5-0.5v-6c0-0.2-0.1-0.5-0.5-0.5h-12.9c-0.2,0-0.5-0.2-0.5-0.5V30.6
				c0-3.6-1.3-5.8-3.5-6.6h-3.8c-1.2,0.3-2.4,0.8-3.8,1.7l-77.7,47.9c-3,1.9-4.1,4-3.3,5.6C377,80.6,378.7,81.6,382.1,81.6z
				 M393.3,73.6l60.2-37.2c0.4-0.3,1.1-0.2,1.1,0.6v37.2c0,0.2-0.2,0.5-0.5,0.5h-60.5c-0.5,0-0.8-0.2-0.8-0.3
				C392.8,74,393,73.8,393.3,73.6z"/>
		</g>
	</g>
	<g>
		<path class="st1" d="M50.4,0C56.2,1.1,62,2.7,67.7,4.3c3.3,1,6.5,1.9,9.8,3c5.1,1.6,10.2,3.5,14.8,6.2c2.1,1.3,4.1,2.7,5.8,4.4
			c1.8,1.8,3.3,3.9,4.5,6.3c2,4.2,2.7,8.9,2.9,13.5c0.1,3,0.1,6.1-0.5,9c-0.5,2.6-1.3,5.1-2.7,7.4c-1.2,2-2.9,3.7-5,4.8
			c-2,1.1-4.2,1.6-6.5,1.5c-3.4,0-6.7-1-9.8-2.5c-0.1-10.2,0-20.3,0-30.5c0-1.8,0.1-3.7-0.3-5.5c-0.3-1.4-0.8-2.8-1.9-3.8
			c-0.7-0.7-1.7-1-2.6-1.2c-1-0.2-2,0.2-2.6,1c-1,1.2-1.3,2.9-1.3,4.4c0,27.2,0,54.4,0,81.5c-7.3-2.3-14.6-4.6-21.9-7
			C50.4,64.7,50.4,32.3,50.4,0z"/>
		<path class="st1" d="M17.5,68.8C27,65.4,36.6,62,46.1,58.6c0,3.7,0,7.5,0,11.2c0,0.5,0,1,0,1.5c-7.5,2.7-15.1,5.4-22.6,8.1
			c-1,0.4-2.1,0.8-2.9,1.6c-0.4,0.4-0.7,0.9-0.5,1.5c0.3,0.6,0.9,1,1.5,1.2c1.7,0.7,3.5,0.8,5.2,0.8c2,0,3.9-0.2,5.9-0.6
			c1.3-0.3,2.5-0.7,3.8-1.2c3.2-1.2,6.4-2.3,9.7-3.5c0,3.2,0,6.3,0,9.5c0,0.6,0,1.3,0,1.9c-4,0.7-8,1.2-12,1.3
			C26,92.2,17.9,91,10.2,88.5c-2.5-0.7-5-1.7-7.1-3.3c-1.2-0.9-2.2-2-2.7-3.4c-0.4-1.2-0.4-2.5,0.1-3.7c0.5-1.1,1.5-2,2.5-2.7
			c2.4-1.6,5-2.9,7.6-4C12.8,70.4,15.2,69.6,17.5,68.8z"/>
		<path class="st1" d="M94.2,64.5c2.2-0.3,4.3-0.3,6.5-0.4c7.2,0,14.3,0.9,21.2,3.1c1.3,0.4,2.6,0.9,4,1.4c2.4,0.9,4.8,1.9,6.7,3.6
			c1.1,1,2.1,2.5,2.1,4.1c0.1,1.3-0.5,2.6-1.4,3.5c-1.6,1.8-3.8,3.1-5.9,4.1c-2.3,1.2-4.7,1.9-7.1,2.8
			c-14.6,5.2-29.2,10.5-43.8,15.7c0-4.1,0-8.2,0-12.3c0-0.2-0.1-0.4,0.2-0.5c11.1-4,22.2-7.9,33.3-11.9c1.5-0.6,3.1-1,4.4-2
			c0.5-0.4,1-1.1,0.8-1.8c-0.3-0.6-0.9-1-1.5-1.2c-1.7-0.7-3.5-0.8-5.2-0.8c-2.8,0-5.6,0.4-8.2,1.2c-7.9,2.8-15.8,5.6-23.7,8.3
			c0-4.4,0-8.8,0-13.2C82.2,66.4,88.2,65.2,94.2,64.5z"/>
		<g>
			<path class="st1" d="M126.7,94.8c1.7-0.2,3.5,0.6,4.6,2c1.1,1.4,1.3,3.5,0.5,5.2c-0.8,1.7-2.6,2.9-4.6,2.9c-1.8,0-3.5-1-4.3-2.5
				c-0.8-1.3-0.9-3-0.3-4.5C123.3,96.2,124.9,95,126.7,94.8z M126.3,95.7c-1,0.2-1.8,0.8-2.4,1.6c-0.7,0.9-1,2.2-0.7,3.4
				c0.2,1.1,0.9,2,1.8,2.6c1.4,0.9,3.4,0.9,4.7-0.1c1.4-1,2-2.9,1.6-4.5c-0.3-1.1-1.1-2-2.1-2.6C128.3,95.6,127.3,95.5,126.3,95.7z"
				/>
			<path class="st1" d="M125.1,96.9c0.9,0,1.8,0,2.7,0c0.5,0,1.1,0.1,1.4,0.5c0.4,0.4,0.4,1,0.3,1.5c-0.1,0.3-0.4,0.5-0.6,0.8
				c0.2,0.2,0.4,0.3,0.5,0.6c0.1,0.5,0,1.1,0.2,1.6c0.1,0.2,0.2,0.4,0.2,0.6c-0.4,0-0.7,0-1.1,0c-0.3-0.6-0.1-1.3-0.2-1.9
				c-0.1-0.2-0.3-0.4-0.6-0.4c-0.6,0-1.2,0-1.8,0c0,0.8,0,1.5,0,2.3c-0.3,0-0.6,0-1,0C125.1,100.6,125.1,98.8,125.1,96.9z
				 M126.1,97.8c0,0.5,0,1,0,1.5c0.5,0,1.1,0,1.6,0c0.3,0,0.6-0.1,0.8-0.3c0.2-0.3,0.2-0.7,0-1c-0.1-0.2-0.4-0.3-0.7-0.3
				C127.3,97.8,126.7,97.8,126.1,97.8z"/>
		</g>
	</g>
</g>
</svg>
