
<svg xmlns="http://www.w3.org/2000/svg" version="1.1" xmlns:xlink="http://www.w3.org/1999/xlink" preserveAspectRatio="none" x="0px" y="0px" width="550px" height="400px" viewBox="0 0 550 400" style="background:#5da57d">
<defs>
<g id="Layer1_0_FILL">
<path fill="#A3FB97" stroke="none" d="
M 272.3 392.95
Q 272.5 385.95 273.9 380.2 273.2 380.2 272.5 380.2 268.4 386.85 263.7 392.95 260.85 396.6 257.8 400
L 272.35 400
Q 272.15 396.35 272.3 392.95 Z"/>

<path fill="#79CC88" stroke="none" d="
M 241.65 385.35
Q 238.15 389.2 234.65 392.95 231.35 396.45 228.1 400
L 257.8 400
Q 260.85 396.6 263.7 392.95 268.4 386.85 272.5 380.2 273.2 380.2 273.9 380.2 273.9 379.5 274.1 378.85 274.55 377.4 275.25 375.95 277.3 366.05 280.4 356.55 283 348.35 282.15 342.05 281.5 342.05 280.8 342.05 261.4 363.95 241.65 385.35 Z"/>

<path fill="#BBFEA0" stroke="none" d="
M 191.05 376.05
Q 191.3 385 192.2 392.95 192.6 396.6 193.15 400
L 228.1 400
Q 231.35 396.45 234.65 392.95 238.15 389.2 241.65 385.35 261.4 363.95 280.8 342.05 281.5 342.05 282.15 342.05 282.15 341.35 282.15 340.65 281.75 337.5 279.35 336.6 261.4 330 244.75 322.4 216.5 309.45 188.1 296.8 189.7 336.9 191.05 376.05 Z"/>

<path fill="#7FD58A" stroke="none" d="
M 272.15 229.3
Q 271.8 228.95 271.1 228.95 270.4 228.95 269.7 228.95 269 228.95 268.35 228.95 240.25 241.95 211.45 253.95 201.9 257.95 192.25 261.45 190.5 263.85 185.35 263.6
L 185.35 264.3
Q 186.05 264.3 186.7 264.3 191.35 266.6 189 275.45 187.7 280.1 188.3 286.9 188.85 293.35 186.7 296.8 187.4 296.8 188.1 296.8 216.5 309.45 244.75 322.4 261.4 330 279.35 336.6 281.75 337.5 282.15 340.65 282.85 340.65 283.2 340.25 283.55 339.9 283.55 339.2 279.75 304.2 275.45 268.65 273.35 250.7 272.5 230.35 272.5 229.65 272.15 229.3 Z"/>

<path fill="#BCFDA1" stroke="none" d="
M 143.15 303.4
Q 125.85 317.3 109.3 332.15 119.4 327.7 129.7 322.9 157.5 310 185.35 296.8 186.05 296.8 186.7 296.8 188.85 293.35 188.3 286.9 187.7 280.1 189 275.45 191.35 266.6 186.7 264.3 166.05 284.85 143.15 303.4 Z"/>

<path fill="#F8FEB8" stroke="none" d="
M 106.8 333.7
Q 106.5 334.25 106.5 334.95 110.45 363.1 112.7 392.95 113 396.45 113.25 400
L 193.15 400
Q 192.6 396.6 192.2 392.95 191.3 385 191.05 376.05 189.7 336.9 188.1 296.8 187.4 296.8 186.7 296.8 186.05 296.8 185.35 296.8 157.5 310 129.7 322.9 119.4 327.7 109.3 332.15 108.6 332.15 107.9 332.15 107.2 332.85 106.8 333.7 Z"/>

<path fill="#A7FE9A" stroke="none" d="
M 64.3 376.7
Q 56.3 384.6 48.75 392.95 45.6 396.4 42.5 400
L 113.25 400
Q 113 396.45 112.7 392.95 110.45 363.1 106.5 334.95 105.8 334.95 105.1 334.95 85.05 356.2 64.3 376.7 Z"/>

<path fill="#529579" stroke="none" d="
M 0 388.7
Q 0.7 388.7 1.25 388.4 15.6 380.65 29.05 371.75 29.7 371.75 30.4 371.75 31.15 371.75 31.85 371.75 29.65 364.75 24.3 360.75 20.8 358.25 17.5 355.2 9.65 347.7 0 342.05 0 364.65 0 387.3 0 388 0 388.7 Z"/>

<path fill="#5FA77D" stroke="none" d="
M 1.25 388.4
Q 0.7 388.7 0 388.7 0 390.8 0 392.95 0 396.45 0 400
L 35.9 400
Q 35.75 396.45 35.6 392.95 35.15 383.65 34.6 374.55
L 33.9 374.55
Q 34.1 371.6 31.85 371.75 31.15 371.75 30.4 371.75 29.7 371.75 29.05 371.75 15.6 380.65 1.25 388.4 Z"/>

<path fill="#82DA8B" stroke="none" d="
M 157.8 268.2
Q 131.8 271.8 103.75 274.2 86 297.7 68.35 321.6 50.9 345.3 34.3 369.7 33.9 370.3 34.25 371.8 34.6 373.15 34.6 374.55 35.15 383.65 35.6 392.95 35.75 396.45 35.9 400
L 42.5 400
Q 45.6 396.4 48.75 392.95 56.3 384.6 64.3 376.7 85.05 356.2 105.1 334.95 105.8 334.95 106.5 334.95 106.5 334.25 106.8 333.7 107.2 332.85 107.9 332.15 108.6 332.15 109.3 332.15 125.85 317.3 143.15 303.4 166.05 284.85 186.7 264.3 186.05 264.3 185.35 264.3 184.65 264.3 183.95 264.3 179.8 264.3 175.7 264.3 167.7 266.75 157.8 268.2 Z"/>

<path fill="#66B280" stroke="none" d="
M 102.35 179.45
Q 101 179.45 99.55 179.45 88 209.3 74.55 236.65 70.85 244.15 67.25 251.3 53.25 278.4 40.35 307.55 38.15 312.4 35.75 317.95 33.6 322.65 31.85 327.9 31.15 328.6 30.4 329.3 28.75 330.95 24.55 328.55 13.3 322.1 0 318 0 329.3 0 340.65 0 341.35 0 342.05 9.65 347.7 17.5 355.2 20.8 358.25 24.3 360.75 29.65 364.75 31.85 371.75 34.1 371.6 33.9 374.55
L 34.6 374.55
Q 34.6 373.15 34.25 371.8 33.9 370.3 34.3 369.7 50.9 345.3 68.35 321.6 86 297.7 103.75 274.2 103.75 267.1 103.3 260.05 101.1 220.55 103.75 179.45 103.05 179.45 102.35 179.45 Z"/>

<path fill="#4A8A77" stroke="none" d="
M 31.85 182.3
Q 15.9 182.3 0 182.3 0 224 0 265.7 0 291.85 0 318 13.3 322.1 24.55 328.55 28.75 330.95 30.4 329.3 31.15 328.6 31.85 327.9 27.3 326.2 30.35 323.6 31.15 322.95 31.1 322.3 30.6 315.65 31.1 308.2 31.75 295.3 32.4 281.25 32.85 270.3 31.4 262.65 29.15 250.85 33.2 255.8 32.4 245.35 32.85 234.65 33.2 227.75 33.2 216.2 33.2 208.45 32.25 200.8 30.9 190.5 33.2 182.3 32.5 182.3 31.85 182.3 Z"/>

<path fill="#33686E" stroke="none" d="
M 20.7 0
Q 10.6 11.5 0.95 23.6 0.7 23.95 0 23.95 0 65.65 0 107.35 0 130 0 152.6 3.15 149.5 7.9 147.45 9 146.95 10 146.55 16.45 144 19.35 138.45 20 114.1 20.6 90.4 21.65 50.6 22.8 14.05 23.15 5.3 20.8 0
L 20.7 0 Z"/>

<path fill="#265669" stroke="none" d="
M 20.7 0
L 0 0
Q 0 11.3 0 22.55 0 23.25 0 23.95 0.7 23.95 0.95 23.6 10.6 11.5 20.7 0
M 489.65 71.2
Q 499.7 71.65 506.25 69.2 514.55 69.2 522.85 69.2 523.5 69.2 524.2 69.2 535.3 70.45 533.35 61.9 526.45 31.05 520.15 0
L 20.8 0
Q 23.15 5.3 22.8 14.05 21.65 50.6 20.6 90.4 20 114.1 19.35 138.45 20.05 138.45 20.4 138.1 21.45 137.05 22.1 135.65 22.8 135.65 23.5 135.65 44.85 120.65 65.95 105.25 89.65 88 113.4 70.6 150.35 72.45 186.7 74.8 187.4 74.85 188.1 74.85 160 87.85 128.8 97.9 127.95 98.2 127.1 98.65 123.6 100.8 118.95 101.7 120.7 105.6 125.8 106.4 143.45 109.2 159.35 113.3 178.75 118.35 197.8 122.9 209.8 116.75 220.55 109.75 245.75 93.45 269.7 76.25 270.4 76.25 271.1 76.25
L 271.1 75.55
Q 274.1 75.75 273.9 73.45 314.7 73.45 355.5 73.45 362.4 73.45 369.3 73.45 364.65 98.4 361.1 124.35 361.05 125.05 361.05 125.75 369.3 122.2 375.9 116.85 376.25 116.55 376.25 115.85 378.9 112.25 383 109.9 386.85 107.65 390.75 104.9 414.45 87.8 439.85 72.05 452.3 72.05 464.7 71.25 476.4 70.55 489.65 71.2 Z"/>

<path fill="#4B8B76" stroke="none" d="
M 215.7 196.95
Q 201.25 197.85 186.7 197.85 189.05 208.15 189.45 221.9 189.45 223.35 189.3 226.1 187.9 246.85 192.25 261.45 201.9 257.95 211.45 253.95 240.25 241.95 268.35 228.95 269 228.95 269.7 228.95 270.4 228.95 271.1 228.95 274.55 212.5 275.85 196.5
L 275.95 195.7
Q 269.7 195 262.8 195 255.55 197.5 244.85 196.95 229.25 196.1 215.7 196.95 Z"/>

<path fill="#5EA77E" stroke="none" d="
M 186.7 197.85
Q 186.05 197.85 185.4 197.65 157.4 188.25 128.65 179.45 127.95 179.45 127.5 179.2 124.4 177.4 118.95 178.05 118.25 178.05 117.55 178.05 112.7 178.05 107.9 178.05 108.1 180.4 105.05 179.6 104.4 179.45 103.75 179.45 101.1 220.55 103.3 260.05 103.75 267.1 103.75 274.2 131.8 271.8 157.8 268.2 167.7 266.75 175.7 264.3 179.8 264.3 183.95 264.3 184.65 264.3 185.35 264.3
L 185.35 263.6
Q 190.5 263.85 192.25 261.45 187.9 246.85 189.3 226.1 189.45 223.35 189.45 221.9 189.05 208.15 186.7 197.85 Z"/>

<path fill="#599F7C" stroke="none" d="
M 196.45 139.9
Q 199.6 130.4 195 125.75 194.3 125.75 193.65 125.75 170.15 143.4 145.25 159.7 131.75 168.5 118.95 178.05 124.4 177.4 127.5 179.2 127.95 179.45 128.65 179.45 129.75 177.05 134.2 177.15 156.25 177.4 175.6 180.1 185.95 181.5 188.1 175.25 190.95 156.2 196.45 139.9 Z"/>

<path fill="#3F7A72" stroke="none" d="
M 195 125.05
Q 198 125.25 197.8 122.9 178.75 118.35 159.35 113.3 143.45 109.2 125.8 106.4 120.7 105.6 118.95 101.7 118.25 101.7 117.55 101.7 88.75 113.95 58.3 124.95 45.3 129.65 32.25 135.3 26.85 137.6 23.5 135.65 22.8 135.65 22.1 135.65 21.45 137.05 20.4 138.1 20.05 138.45 19.35 138.45 16.45 144 10 146.55 9 146.95 7.9 147.45 3.15 149.5 0 152.6 0 166.75 0 180.9 0 181.6 0 182.3 15.9 182.3 31.85 182.3 32.5 182.3 33.2 182.3 30.9 190.5 32.25 200.8 33.2 208.45 33.2 216.2 33.2 227.75 32.85 234.65 32.4 245.35 33.2 255.8 29.15 250.85 31.4 262.65 32.85 270.3 32.4 281.25 31.75 295.3 31.1 308.2 30.6 315.65 31.1 322.3 31.15 322.95 30.35 323.6 27.3 326.2 31.85 327.9 33.6 322.65 35.75 317.95 38.15 312.4 40.35 307.55 53.25 278.4 67.25 251.3 70.85 244.15 74.55 236.65 88 209.3 99.55 179.45 101 179.45 102.35 179.45 103.05 179.45 103.75 179.45 104.4 179.45 105.05 179.6 108.1 180.4 107.9 178.05 112.7 178.05 117.55 178.05 118.25 178.05 118.95 178.05 131.75 168.5 145.25 159.7 170.15 143.4 193.65 125.75 194.3 125.75 195 125.75
L 195 125.05 Z"/>

<path fill="#569A7B" stroke="none" d="
M 188.1 74.85
Q 187.4 74.85 186.7 74.8 150.35 72.45 113.4 70.6 89.65 88 65.95 105.25 44.85 120.65 23.5 135.65 26.85 137.6 32.25 135.3 45.3 129.65 58.3 124.95 88.75 113.95 117.55 101.7 118.25 101.7 118.95 101.7 123.6 100.8 127.1 98.65 127.95 98.2 128.8 97.9 160 87.85 188.1 74.85 Z"/>

<path fill="#4D8F77" stroke="none" d="
M 271.1 76.25
Q 270.4 76.25 269.7 76.25 245.75 93.45 220.55 109.75 209.8 116.75 197.8 122.9 198 125.25 195 125.05
L 195 125.75
Q 199.6 130.4 196.45 139.9 190.95 156.2 188.1 175.25 199.6 162.3 210.95 149.15 220.7 137.85 230.55 126.5 249.6 104.45 268.75 82.3 272.25 78.2 271.1 76.25 Z"/>

<path fill="#235168" stroke="none" d="
M 435.7 370.3
Q 436.9 381.15 437.1 392.95 437.15 396.4 437.1 400
L 475.2 400
Q 474.55 399.35 473.25 399.65 469 400.55 467.5 392.95
L 467.35 392.95
Q 466.75 392.95 466.15 392.8 458.9 391.6 460.6 387.3 455.4 386.9 453.4 383.2 450.95 378.75 448.15 380.2 448.15 379.5 447.8 379 443.75 372.8 435.7 370.3 Z"/>

<path fill="#4B8C77" stroke="none" d="
M 432.95 368.9
Q 426.9 381.55 419.7 392.95 417.45 396.55 415.05 400
L 437.1 400
Q 437.15 396.4 437.1 392.95 436.9 381.15 435.7 370.3 435.7 369.6 435.4 369.45 434.3 368.9 432.95 368.9 Z"/>

<path fill="#53977A" stroke="none" d="
M 361.05 313.75
Q 361.05 313.05 360.9 312.35 359.9 303.6 356.85 296.8 337.2 282.25 318.45 266.7 296 248.05 272.5 230.35 273.35 250.7 275.45 268.65 279.75 304.2 283.55 339.2 284.2 338.5 285.05 338.3 317.45 329.3 347.15 318 348.55 318 349.95 318 350.65 318 351.3 318 351.3 317.3 351.4 317.3 356.85 316.6 359.6 313.75 360.3 313.75 361.05 313.75 Z"/>

<path fill="#68B681" stroke="none" d="
M 347.35 322.75
Q 353.6 321.05 351.3 318 350.65 318 349.95 318 348.55 318 347.15 318 317.45 329.3 285.05 338.3 284.2 338.5 283.55 339.2 283.55 339.9 283.2 340.25 282.85 340.65 282.15 340.65 282.15 341.35 282.15 342.05 283 348.35 280.4 356.55 277.3 366.05 275.25 375.95 287.55 368.05 299 359.45 322.7 341.75 345.7 323.6 346.45 322.95 347.35 322.75 Z"/>

<path fill="#5DA57D" stroke="none" d="
M 351.3 318
Q 353.6 321.05 347.35 322.75 346.45 322.95 345.7 323.6 322.7 341.75 299 359.45 287.55 368.05 275.25 375.95 274.55 377.4 274.1 378.85 273.9 379.5 273.9 380.2 272.5 385.95 272.3 392.95 272.15 396.35 272.35 400
L 357.25 400
Q 357.6 397.15 357.75 394.35 357.8 393.65 357.8 392.95 359.8 353.55 361.05 313.75 360.3 313.75 359.6 313.75 356.85 316.6 351.4 317.3 351.3 317.3 351.3 318 Z"/>

<path fill="#153E62" stroke="none" d="
M 442.6 268.55
Q 441.9 268.55 441.2 268.55 446.1 278.4 450.65 288.45 450.95 289.05 450.95 289.75 450.95 290.45 450.95 291.15 450.95 291.85 450.95 292.55 478.65 297.45 504.7 304.35 514.35 306.9 521.45 305.3 509.5 301.25 499.05 295.95 471.55 282.1 444 268.55 443.3 268.55 442.6 268.55 Z"/>

<path fill="#30656C" stroke="none" d="
M 438.5 267.1
Q 437.8 267.1 437.1 267.1 436.35 267.1 435.7 267.1 411.15 283.75 385.85 299.55 376.45 305.5 366.5 310.95 373.45 312.3 383.15 309.55 414.85 300.25 448.05 292.2 449.5 291.85 450.95 291.15 450.95 290.45 450.95 289.75 450.2 289.75 450.05 289.45 444 278.4 438.5 267.1 Z"/>

<path fill="#194463" stroke="none" d="
M 390.35 184.65
Q 393.5 183.7 396.9 183.2 402.5 182.3 408 180.9 407.35 180.9 407 180.55 406.65 180.15 406.65 179.45 405.95 179.45 405.25 179.45 404.6 179.45 403.9 179.45 396.8 182.1 387.35 183.2 379.4 184.15 372.05 186.55 382.8 186.9 390.35 184.65 Z"/>

<path fill="#3A7270" stroke="none" d="
M 435.7 81.9
Q 435 81.9 434.3 81.9 408.65 97.4 383.3 113.25 380.3 115.05 376.25 115.85 376.25 116.55 375.9 116.85 369.3 122.2 361.05 125.75 361.05 125.05 361.1 124.35 364.65 98.4 369.3 73.45 362.4 73.45 355.5 73.45 314.7 73.45 273.9 73.45 274.1 75.75 271.1 75.55
L 271.1 76.25
Q 272.25 78.2 268.75 82.3 249.6 104.45 230.55 126.5 220.7 137.85 210.95 149.15 199.6 162.3 188.1 175.25 185.95 181.5 175.6 180.1 156.25 177.4 134.2 177.15 129.75 177.05 128.65 179.45 157.4 188.25 185.4 197.65 186.05 197.85 186.7 197.85 201.25 197.85 215.7 196.95 229.25 196.1 244.85 196.95 255.55 197.5 262.8 195 269.7 195 275.95 195.7
L 275.85 196.5
Q 274.55 212.5 271.1 228.95 271.8 228.95 272.15 229.3 272.5 229.65 272.5 230.35 296 248.05 318.45 266.7 337.2 282.25 356.85 296.8 359.9 303.6 360.9 312.35 361.05 313.05 361.05 313.75 359.8 353.55 357.8 392.95 357.8 393.65 357.75 394.35 357.6 397.15 357.25 400
L 381.45 400
Q 383.15 396.2 385.2 392.95 385.3 392.7 385.4 392.6 401.8 367.5 418.15 342.75 434.65 317.65 450.95 292.55 450.95 291.85 450.95 291.15 449.5 291.85 448.05 292.2 414.85 300.25 383.15 309.55 373.45 312.3 366.5 310.95 376.45 305.5 385.85 299.55 411.15 283.75 435.7 267.1 436.35 267.1 437.1 267.1 437.8 267.1 438.5 267.1 437.4 262.15 438.75 257.3 439.15 255.8 438.9 254.6 438.55 252.9 439.35 250.5 440.35 247.8 440.2 244.55 440 240.9 440.65 235.95 444.9 207.4 449.5 175.25 448.8 175.25 448.15 175.25 446.1 175.25 444 175.25 436.35 178.05 426.15 179.25 424.6 179.4 421.85 179.6 414.95 180.15 408 180.9 402.5 182.3 396.9 183.2 393.5 183.7 390.35 184.65 382.8 186.9 372.05 186.55 379.4 184.15 387.35 183.2 396.8 182.1 403.9 179.45 404.6 179.45 405.25 179.45 405.95 179.45 406.65 179.45 416.1 177.75 426 176.55 435.2 175.45 442.6 172.4 445.4 172.4 448.15 172.4 448.8 172.4 449.5 172.4 448.2 159.25 445.1 142.8 443.1 132.25 440.9 115.9 438.7 99.9 435.7 81.9
M 361.05 127.15
Q 358.65 128.3 359.4 132.8 360.85 141.45 361.35 151.2 362.15 165.45 361.05 175.25 355.4 175.6 352.75 175.35 348.1 175 342.95 174.75 330.3 174.1 319.4 173.2 298.55 171.35 283.55 169.55 284.45 160.9 283.25 155.2 282.5 151.5 281.4 141.35 280.85 136.55 280.15 125.8 279.7 117.7 279 108.8 278.55 101.95 277.85 91.8 277.4 83.95 276.6 74.85 294.2 84.45 310.15 95.5 334.65 112.4 361.05 127.15 Z"/>

<path fill="#2C5F6B" stroke="none" d="
M 359.4 132.8
Q 358.65 128.3 361.05 127.15 334.65 112.4 310.15 95.5 294.2 84.45 276.6 74.85 277.4 83.95 277.85 91.8 278.55 101.95 279 108.8 279.7 117.7 280.15 125.8 280.85 136.55 281.4 141.35 282.5 151.5 283.25 155.2 284.45 160.9 283.55 169.55 298.55 171.35 319.4 173.2 330.3 174.1 342.95 174.75 348.1 175 352.75 175.35 355.4 175.6 361.05 175.25 362.15 165.45 361.35 151.2 360.85 141.45 359.4 132.8 Z"/>

<path fill="#2C5D6B" stroke="none" d="
M 527.95 196.1
Q 538.9 181.8 550 167.75
L 550 148.25
Q 539.1 172.25 527.3 195.15 527 195.7 527 196.45 527.7 196.45 527.95 196.1 Z"/>

<path fill="#06295C" stroke="none" d="
M 492.5 190.55
Q 493.1 190.8 493.8 190.8 493.8 190.05 493.6 190 471.7 180.9 449.5 172.4 448.8 172.4 448.15 172.4 445.4 172.4 442.6 172.4 435.2 175.45 426 176.55 416.1 177.75 406.65 179.45 406.65 180.15 407 180.55 407.35 180.9 408 180.9 414.95 180.15 421.85 179.6 424.6 179.4 426.15 179.25 436.35 178.05 444 175.25 446.1 175.25 448.15 175.25 448.8 175.25 449.5 175.25 470.45 183.5 492.5 190.55 Z"/>

<path fill="#2E616C" stroke="none" d="
M 497.9 193.6
Q 497.25 193.6 496.55 193.6 479.4 217.8 460.2 239.75 453.95 246.9 447.3 253.55 442.45 258.5 440.65 265.9 440.55 266.4 441.2 266.4 444.2 266.25 444 268.55 471.55 282.1 499.05 295.95 509.5 301.25 521.45 305.3 514.35 306.9 504.7 304.35 478.65 297.45 450.95 292.55 434.65 317.65 418.15 342.75 401.8 367.5 385.4 392.6 385.3 392.7 385.2 392.95 383.15 396.2 381.45 400
L 415.05 400
Q 417.45 396.55 419.7 392.95 426.9 381.55 432.95 368.9 434.3 368.9 435.4 369.45 435.7 369.6 435.7 370.3 443.75 372.8 447.8 379 448.15 379.5 448.15 380.2 450.95 378.75 453.4 383.2 455.4 386.9 460.6 387.3 458.9 391.6 466.15 392.8 466.75 392.95 467.35 392.95
L 467.5 392.95
Q 469 400.55 473.25 399.65 474.55 399.35 475.2 400
L 525.9 400
Q 526.45 396.45 526.95 392.95 529.5 373.7 532.85 354.85 533.6 350.8 533.6 349.1 533.5 338.95 531.4 330.65 528.25 318.15 527.35 303.85 526 283.65 524.95 262.85 523.95 243.35 523.85 223.3 523.8 211.7 521.45 203.5 521.45 202.8 521.2 202.65 510.15 197.35 497.9 193.6 Z"/>

<path fill="#2B5D6A" stroke="none" d="
M 496.55 193.6
Q 497.25 193.6 497.9 193.6
L 497.9 192.9
Q 494.2 193.2 493.8 190.8 493.1 190.8 492.5 190.55 470.45 183.5 449.5 175.25 444.9 207.4 440.65 235.95 440 240.9 440.2 244.55 440.35 247.8 439.35 250.5 438.55 252.9 438.9 254.6 439.15 255.8 438.75 257.3 437.4 262.15 438.5 267.1 444 278.4 450.05 289.45 450.2 289.75 450.95 289.75 450.95 289.05 450.65 288.45 446.1 278.4 441.2 268.55 441.9 268.55 442.6 268.55 443.3 268.55 444 268.55 444.2 266.25 441.2 266.4 440.55 266.4 440.65 265.9 442.45 258.5 447.3 253.55 453.95 246.9 460.2 239.75 479.4 217.8 496.55 193.6 Z"/>

<path fill="#1A4564" fill-opacity="0.996078431372549" stroke="none" d="
M 524.2 69.2
Q 524.2 69.9 523.85 70.25 523.5 70.6 522.85 70.6 523.3 93 523.1 108.8 523.05 113.5 523.3 124.35 524.2 161.8 525.5 199.2 525.6 201.95 526.25 197.7 526.3 197.15 526.3 196.45
L 527 196.45
Q 527 195.7 527.3 195.15 539.1 172.25 550 148.25
L 550 0 520.15 0
Q 526.45 31.05 533.35 61.9 535.3 70.45 524.2 69.2 Z"/>

<path fill="#245268" stroke="none" d="
M 514.55 70.6
Q 506.6 73.1 496.6 74.15 465.95 77.45 435.7 81.9 438.7 99.9 440.9 115.9 443.1 132.25 445.1 142.8 448.2 159.25 449.5 172.4 471.7 180.9 493.6 190 493.8 190.05 493.8 190.8 494.2 193.2 497.9 192.9
L 497.9 193.6
Q 510.15 197.35 521.2 202.65 521.45 202.8 521.45 203.5 523.8 211.7 523.85 223.3 523.95 243.35 524.95 262.85 526 283.65 527.35 303.85 528.25 318.15 531.4 330.65 533.5 338.95 533.6 349.1 533.6 350.8 532.85 354.85 529.5 373.7 526.95 392.95 526.45 396.45 525.9 400
L 550 400 550 167.75
Q 538.9 181.8 527.95 196.1 527.7 196.45 527 196.45
L 526.3 196.45
Q 526.3 197.15 526.25 197.7 525.6 201.95 525.5 199.2 524.2 161.8 523.3 124.35 523.05 113.5 523.1 108.8 523.3 93 522.85 70.6 522.15 70.6 521.45 70.6 518 70.6 514.55 70.6 Z"/>

<path fill="#03245B" stroke="none" d="
M 506.25 69.2
Q 499.7 71.65 489.65 71.2 476.4 70.55 464.7 71.25 452.3 72.05 439.85 72.05 414.45 87.8 390.75 104.9 386.85 107.65 383 109.9 378.9 112.25 376.25 115.85 380.3 115.05 383.3 113.25 408.65 97.4 434.3 81.9 435 81.9 435.7 81.9 465.95 77.45 496.6 74.15 506.6 73.1 514.55 70.6 518 70.6 521.45 70.6 522.15 70.6 522.85 70.6 523.5 70.6 523.85 70.25 524.2 69.9 524.2 69.2 523.5 69.2 522.85 69.2 514.55 69.2 506.25 69.2 Z"/>
</g>
</defs>

<g transform="matrix( 1, 0, 0, 1, 0,0) ">
<use xlink:href="#Layer1_0_FILL"/>
</g>
</svg>
