
<svg xmlns="http://www.w3.org/2000/svg" version="1.1" xmlns:xlink="http://www.w3.org/1999/xlink" preserveAspectRatio="none" x="0px" y="0px" width="270px" height="110px" viewBox="0 0 270 110">
<defs>
<g id="Layer0_0_FILL">
<path fill="#FFFFFF" stroke="none" d="
M 72.8 74.05
Q 72.8 72.9 71.3 72.9 70.75 72.9 70.5 72.25 69.75 70.45 68.15 70.45 63.7 70.45 59.25 76.25 54.75 82 54.75 87 54.75 88.95 55.85 90.2 56.9 91.45 58.35 91.45 60.55 91.45 63.15 89.65 65.75 87.85 68.4 84.25 68.4 88 69.35 90 70.3 92.05 71.8 92.05 72.55 92.05 73.35 91.45 74.2 90.85 74.2 90.25 74.2 89.6 73.35 89.1 71.6 88.2 71.6 83.6 71.6 81.3 72.65 75.7 72.8 74.65 72.8 74.05
M 59.5 88.25
Q 58.1 88.25 58.1 86.1 58.1 82.95 61.4 78.25 64.75 73.55 67.25 73.55 69.05 73.55 69.05 76.25 69.05 79.8 65.35 84.05 61.6 88.25 59.5 88.25
M 37 89.5
Q 38 90.55 39.7 90.55 42 90.55 44.7 89 47.4 87.4 49.1 85.35 50.15 84.15 50.4 84.3 50.2 85.35 50.05 86.85 49.5 93.5 47.85 96.8 46.25 100.15 43.1 100.15 39.5 100.15 35.05 97.15 33.35 96.05 33 96.05 32.3 96.05 32.3 96.95 32.3 98.45 35.75 100.9 39.25 103.35 42.8 103.35 44.85 103.35 46.8 102.25 48.75 101.15 50.15 98.9 51.5 96.7 52.05 94.3 52.6 91.9 53.05 87.5 53.55 82.6 53.95 80.5 54.4 78.45 55.55 75.3 55.75 74.7 55.75 74.4 55.75 73.95 55.45 73.2 55.15 72.45 54.8 72.2 54.6 72.05 54.3 71.8 53.1 70.9 51.5 70.9 48.5 70.9 44.5 73.6 40.5 76.3 38.25 79.95 36.05 83.55 36.05 86.5 36.05 88.4 37 89.5
M 39.8 87.05
Q 39.3 86.6 39.3 85.85 39.3 83.7 41.6 80.45 43.9 77.2 46.3 75.55 48.75 73.85 50.35 73.85 51.9 73.85 51.9 75.95 51.9 77.75 49.95 80.85 48 83.95 45.25 85.7 42.5 87.45 40.8 87.45 40.25 87.45 39.8 87.05
M 152.85 71
Q 151.95 70.05 150.5 70.05 146.15 70.05 142.5 74.95 138.8 79.85 138.8 85.3 138.8 88.55 140.5 90.35 142.15 92.15 145.2 92.15 148.85 92.15 152.3 89.45 155.75 86.7 155.75 84.75 155.75 83.75 155.1 83.75 154.8 83.75 154.15 84.4 149.9 88.95 145.8 88.95 144 88.95 143.1 88 142.2 87.05 142.2 85.45 142.2 84.65 143.2 84.1 148 81.55 150.9 78.85 153.75 76.15 153.75 73.2 153.75 71.9 152.85 71
M 149.55 72.9
Q 150.55 72.9 150.55 74.05 150.55 76.95 142.5 81.75 143.4 78.05 145.6 75.5 147.8 72.9 149.55 72.9
M 106.2 73.55
Q 105.5 71.95 103.95 71.95 102.1 71.95 100.6 73.6 99.1 75.3 97.5 78.5 94.5 84.6 93.6 84.6 93.5 84.6 93.25 83.85 93 83.1 92.95 81.55 92.8 75.3 92.05 73.6 91.35 71.95 90.1 71.95 88.45 71.95 86.95 73.4 85.4 74.8 82.15 80.1 79.85 83.95 78.7 85.1 78.7 84.1 79.5 79.3 80.2 75.15 80.2 73.7 80.2 70.65 78.1 70.65 77 70.65 77 71.95 77 73.2 76.5 76.2 75.3 83.5 75.3 86.3 75.3 91.3 76.55 91.3 77.15 91.3 78 91.05 78.85 90.8 79.2 90.5 79.5 90.15 81.5 86.65 87.3 76.2 89.05 76.15 89.8 77.15 90.1 83.15 90.3 86.75 90.45 87.7 90.65 88.6 91.3 89.3 91.95 89.9 92.75 89.9 93.65 89.9 94.65 88.7 95.65 87.5 97.55 83.85 99.95 79.2 101.1 77.7 102.15 76.15 102.95 76.15 103.5 76.15 103.75 77.2 104 78.25 104.25 80.75 104.85 86.95 106.05 88.8 107.25 90.7 108.8 90.7 109.55 90.7 110.45 90 111 89.6 111.25 89.2 111.6 89.8 112.1 90.35 113.75 92.15 116.8 92.15 120.45 92.15 123.9 89.45 127.35 86.7 127.35 84.75 127.35 83.75 126.7 83.75 126.4 83.75 125.75 84.4 121.5 88.95 117.4 88.95 115.6 88.95 114.7 88 113.8 87.05 113.8 85.45 113.8 84.65 114.8 84.1 119.6 81.55 122.5 78.85 125.35 76.15 125.35 73.2 125.35 71.9 124.45 71 123.55 70.05 122.1 70.05 117.75 70.05 114.1 74.95 110.4 79.85 110.4 85.3 110.4 86.55 110.65 87.6 110.5 87.5 110.3 87.4 108.7 86.65 108.1 84.05 107.5 81.4 107.2 78.25 106.9 75.15 106.2 73.55
M 114.1 81.75
Q 115 78.05 117.2 75.5 119.4 72.9 121.15 72.9 122.15 72.9 122.15 74.05 122.15 76.95 114.1 81.75
M 239.8 71
Q 238.9 70.05 237.45 70.05 233.1 70.05 229.45 74.95 225.75 79.85 225.75 85.3 225.75 86.1 225.85 86.85 225.2 87.1 224.7 87.1 223.75 87.1 223.35 86 222.9 84.8 222.35 80.1 221.9 76 220.8 74.4 219.75 72.85 218 72.85 215.85 72.85 214.05 74.75 212.3 76.65 209.9 81.25 207.55 85.8 207.25 85.8 207.1 85.8 207.1 85.5 207.1 84.95 207.5 83 208.6 77 208.6 75.05 208.6 73.2 208.2 72.6 207.8 72 206.8 72 206.25 72 205.65 72.9 205 73.8 205 74.5 205 80.9 203.95 86.65 203.65 88.3 203.65 89.2 203.65 91.4 205.9 91.4 206.5 91.4 207.45 90.55 208.35 89.7 211.5 83.65 213.9 79.15 215.1 77.85 216.25 76.55 217.25 76.55 218.95 76.55 219.5 82.15 220 87.75 220.9 89.05 221.8 90.3 223.4 90.3 225 90.3 226.1 89.35 226.3 89.15 226.5 89 226.9 89.75 227.45 90.35 229.1 92.15 232.15 92.15 235.8 92.15 239.25 89.45 242.7 86.7 242.7 84.75 242.7 83.75 242.05 83.75 241.75 83.75 241.1 84.4 236.85 88.95 232.75 88.95 230.95 88.95 230.05 88 229.15 87.05 229.15 85.45 229.15 84.65 230.15 84.1 234.95 81.55 237.85 78.85 240.7 76.15 240.7 73.2 240.7 71.9 239.8 71
M 236.5 72.9
Q 237.5 72.9 237.5 74.05 237.5 76.95 229.45 81.75 230.35 78.05 232.55 75.5 234.75 72.9 236.5 72.9
M 202.05 64.25
Q 202.2 64.6 202.25 64.85 202.45 65.7 202.85 65.7 203.4 65.7 204.45 65.2 205.45 64.65 205.9 63.15 206.35 61.65 206.35 61 206.35 60.6 205.7 60.2 205 59.75 204.45 59.75 203.35 59.75 202.45 60.55 201.55 61.35 201.55 62.1 201.55 63 202.05 64.25
M 200.65 71.6
Q 199.85 71.6 199.4 72.45 199 73.3 199 74.5 199 75.1 198.5 77.75 197.05 85.35 197.05 88.85 197.05 92.25 198.9 92.25 199.6 92.25 200.2 91.7 200.85 91.15 200.85 90.8 200.85 90.55 200.75 90.25 200.35 88.4 200.35 86.95 200.35 84 200.7 81.8 201.05 79.65 202.5 74.6 202.75 73.7 202.75 73.1 202.75 72.55 202.2 72.1 201.65 71.6 200.65 71.6
M 195.45 71.8
Q 194.25 70.9 192.65 70.9 189.65 70.9 185.65 73.6 181.65 76.3 179.4 79.95 177.2 83.55 177.2 86.5 177.2 86.75 177.25 86.95 176.75 87.1 176.4 87.1 175.45 87.1 175.05 86 174.6 84.8 174.05 80.1 173.6 76 172.5 74.4 171.45 72.85 169.7 72.85 167.55 72.85 165.75 74.75 164 76.65 161.6 81.25 159.25 85.8 158.95 85.8 158.8 85.8 158.8 85.5 158.8 84.95 159.2 83 160.3 77 160.3 75.05 160.3 73.2 159.9 72.6 159.5 72 158.5 72 157.95 72 157.35 72.9 156.7 73.8 156.7 74.5 156.7 80.9 155.65 86.65 155.35 88.3 155.35 89.2 155.35 91.4 157.6 91.4 158.2 91.4 159.15 90.55 160.05 89.7 163.2 83.65 165.6 79.15 166.8 77.85 167.95 76.55 168.95 76.55 170.65 76.55 171.2 82.15 171.7 87.75 172.6 89.05 173.5 90.3 175.1 90.3 176.7 90.3 177.8 89.35 177.85 89.3 177.95 89.25 178.05 89.35 178.15 89.5 179.15 90.55 180.85 90.55 183.15 90.55 185.85 89 188.55 87.4 190.25 85.35 191.3 84.15 191.55 84.3 191.35 85.35 191.2 86.85 190.65 93.5 189 96.8 187.4 100.15 184.25 100.15 180.65 100.15 176.2 97.15 174.5 96.05 174.15 96.05 173.45 96.05 173.45 96.95 173.45 98.45 176.9 100.9 180.4 103.35 183.95 103.35 186 103.35 187.95 102.25 189.9 101.15 191.3 98.9 192.65 96.7 193.2 94.3 193.75 91.9 194.2 87.5 194.7 82.6 195.1 80.5 195.55 78.45 196.7 75.3 196.9 74.7 196.9 74.4 196.9 73.95 196.6 73.2 196.3 72.45 195.95 72.2 195.75 72.05 195.45 71.8
M 181.95 87.45
Q 181.4 87.45 180.95 87.05 180.45 86.6 180.45 85.85 180.45 83.7 182.75 80.45 185.05 77.2 187.45 75.55 189.9 73.85 191.5 73.85 193.05 73.85 193.05 75.95 193.05 77.75 191.1 80.85 189.15 83.95 186.4 85.7 183.65 87.45 181.95 87.45 Z"/>
</g>

<g id="Layer0_1_FILL">
<path fill="#745C00" fill-opacity="0.6666666666666666" stroke="none" d="
M 246.1 235.55
L 245.8 235.55 245.8 235.6 246.1 235.55 Z"/>

<path fill="#5B4900" fill-opacity="0.5882352941176471" stroke="none" d="
M 245.5 235.6
L 245.5 235.55 245.25 235.55 245.5 235.6 Z"/>

<path fill="#B79200" fill-opacity="0.8549019607843137" stroke="none" d="
M 245.5 235.6
L 245.8 235.6 245.8 235.55 245.5 235.55 245.5 235.6 Z"/>

<path fill="#FFFFFF" stroke="none" d="
M 243 205.4
Q 243.2 205.3 243.7 205.55 244.45 205.85 245.2 206.1 244.75 205.9 244.65 205.35 244.65 205 244.95 204.85 245.1 204.75 245.4 204.8 245.65 204.9 246 205.15 246.2 205.25 246.6 205.55 246.9 205.75 247.65 206.1 248 206.3 248.55 206.8
L 248.55 206.85
Q 248.75 207.05 248.95 207.2 249.45 207.7 249.45 207.8
L 249.45 207.85
Q 250.95 208.25 252.45 209 255 210.4 256.65 212.25 258.2 214.05 258.65 216.4
L 256.9 216.4 256.8 217.85 256.65 219.65 255.85 219.15 253.6 217.7 245.75 221.5
Q 249.45 227.65 258.45 227.9 257.3 230.05 255.45 231.8 253.2 234 250.15 234.95 249.65 235.1 249.15 235.25 249.15 235.55 249.15 235.8 249.15 236.2 249.1 236.6
L 267.35 236.6 245.7 177.05 223.9 236.6 241.6 236.6
Q 241.5 236.15 241.5 235.65 241.5 235.35 241.5 235.05 240.75 234.8 240 234.45 237.3 233.2 235.35 231.05 233.4 228.95 232.45 226.25 231.4 223.4 231.65 220.4 231.9 217.4 233.15 214.95 234.05 213.2 235.35 211.8 236.05 210.65 237.2 210.1
L 236.4 210
Q 235.9 209.9 235.9 209.5 235.9 209.3 236.2 209.05 237.15 208.25 238.35 208.3 237.75 208.25 237.6 208 237.4 207.7 237.8 207.45 238 207.35 238.4 207.35
L 240.8 207.2
Q 241.05 206.65 241.55 206.8 241.65 206.3 242.35 206.45 243.15 206.6 243.3 206.6 242.9 206.3 242.85 206.05 242.7 205.6 243 205.4
M 286.2 192.3
L 270.6 192.3 270.6 236.35 280.5 236.35 280.5 221.2 285.3 221.2
Q 293.25 221.2 298.05 217.1 302.8 212.95 302.8 206.35 302.8 192.3 286.2 192.3
M 292.35 206.75
Q 292.35 213.65 284.45 213.65
L 280.5 213.65 280.5 199.9 284.45 199.9
Q 292.35 199.9 292.35 206.75
M 219.75 192.3
L 194.35 192.3 194.35 236.35 220.8 236.35 220.8 228.25 204.25 228.25 204.25 218.2 218.7 218.2 218.7 210.2 204.25 210.2 204.25 200.4 219.75 200.4 219.75 192.3
M 189 192.3
L 179 192.3 179 209.9 160.75 209.9 160.75 192.3 150.85 192.3 150.85 236.35 160.75 236.35 160.75 218.4 179 218.4 179 236.35 189 236.35 189 192.3
M 334.25 193.9
Q 332 193.1 329.3 192.7 326.65 192.3 323.25 192.3 319.7 192.3 316.6 192.95 313.45 193.7 311.1 195.3 308.7 196.8 307.3 199.25 305.95 201.65 305.95 204.95 305.95 209.2 308.5 212.25 311 215.2 316.15 217.35 318.2 218.15 319.95 218.9 321.65 219.7 322.95 220.55 324.25 221.35 324.95 222.35 325.7 223.3 325.7 224.6 325.7 225.5 325.2 226.3 324.8 227.1 323.85 227.7 322.95 228.25 321.55 228.5 320.15 228.9 318.25 228.9 315.05 228.9 311.9 227.85 308.75 226.7 306.1 224.55
L 306.1 234.1
Q 308.5 235.25 311.8 235.85 315.05 236.5 318.65 236.5 322.2 236.5 325.35 235.8 328.6 235.15 330.95 233.7 333.35 232.15 334.8 229.7 336.15 227.3 336.15 223.7 336.15 221.1 335.35 219.2 334.55 217.25 333 215.7 331.55 214.15 329.45 213 327.3 211.75 324.7 210.7 322.75 209.95 321.25 209.2 319.65 208.45 318.6 207.65 317.55 206.9 316.95 206.15 316.35 205.25 316.35 204.1 316.35 203.15 316.9 202.4 317.4 201.6 318.35 201.05 319.3 200.45 320.7 200.15 322.05 199.85 323.75 199.85 325.05 199.85 326.4 200 327.75 200.2 329.1 200.6 330.5 200.9 331.8 201.5 333.1 202.05 334.25 202.8
L 334.25 193.9 Z"/>

<path fill="#FE9F44" stroke="none" d="
M 343.95 226.1
Q 341.8 226.1 340.25 227.55
L 340.2 227.6
Q 338.8 229.15 338.8 231.2 338.8 233.3 340.2 234.75
L 340.25 234.8
Q 341.8 236.35 343.95 236.35 346.05 236.35 347.5 234.8 349.05 233.3 349.05 231.2 349.05 229.1 347.5 227.55 346.05 226.1 343.95 226.1
M 362.6 207.35
L 352.95 207.35 352.95 236.35 362.6 236.35 362.6 207.35
M 399.15 221.5
Q 399.15 214.65 394.95 210.45 390.75 206.2 383.35 206.2 375.85 206.2 371.4 210.45 367.05 214.65 367.05 222 367.05 229.15 371.25 233.4 375.5 237.6 382.95 237.6 390.5 237.6 394.85 233.3 399.15 228.95 399.15 221.5
M 378.15 215.5
Q 379.95 213.25 383.25 213.25 389.85 213.25 389.85 221.65 389.85 230.5 383.25 230.5 376.35 230.5 376.35 221.9 376.35 217.75 378.15 215.5
M 353.85 193.75
Q 352.4 195.35 352.4 197.45 352.4 199.55 353.85 201 355.35 202.55 357.55 202.55 359.6 202.55 361.1 201 362.6 199.55 362.6 197.45 362.6 195.35 361.1 193.75 359.6 192.35 357.55 192.35 355.35 192.35 353.85 193.75 Z"/>
</g>
</defs>

<g transform="matrix( 1, 0, 0, 1, 0,0) ">
<use xlink:href="#Layer0_0_FILL"/>
</g>

<g transform="matrix( 1, 0, 0, 1, -139.35,-168.95) ">
<use xlink:href="#Layer0_1_FILL"/>
</g>
</svg>
