
<svg xmlns="http://www.w3.org/2000/svg" version="1.1" xmlns:xlink="http://www.w3.org/1999/xlink" preserveAspectRatio="none" x="0px" y="0px" width="550px" height="400px" viewBox="0 0 550 400" style="background:#BC3444">
<defs>
<g id="Layer0_0_FILL">
<path fill="#EF4F44" stroke="none" d="
M 285.15 239.6
L 285.15 238.9
Q 267.05 240.75 250.7 245 250 245 249.4 245.2 227.4 251.9 202.5 255.85 202.5 256.55 202.35 256.6 199.75 257.2 197 257.2 197 257.85 197 258.55 209.45 267.3 221.9 275.95 245.75 292.5 268.65 309.95 274.4 308.2 273.5 299.1 273.45 298.5 273.6 297.75 275.85 281.9 278.95 267.9 279.65 264.6 280.1 261.3 281.9 249.95 285.15 239.6 Z"/>

<path fill="#FE9F44" stroke="none" d="
M 154.15 333.85
Q 136.4 339.75 118.45 345.15 118.45 345.85 118.4 346.55 115.15 373.65 111.05 400
L 272.65 400
Q 271.1 363.9 271.3 326.25 271.4 319.45 271.4 312.65 263.8 310.65 254.55 312.8 249.35 314 243.9 314.75 226.3 317.1 207.95 319 188.8 320.85 174.5 326.5 164.2 330.55 154.15 333.85 Z"/>

<path fill="#D03F44" stroke="none" d="
M 0 388.5
Q 0 389.15 0 389.85 0 394.9 0 400
L 8.15 400
Q 4.65 394.35 0.9 388.85 0.7 388.5 0 388.5 Z"/>

<path fill="#D64244" stroke="none" d="
M 27.55 304.55
Q 27.2 317.75 28.25 329 31.3 364 32.9 400
L 77.55 400
Q 65.1 375.8 52.85 351.7 40.5 327.7 27.55 304.55 Z"/>

<path fill="#FE6644" stroke="none" d="
M 27.55 303.2
Q 27.55 303.85 27.55 304.55 40.5 327.7 52.85 351.7 65.1 375.8 77.55 400
L 111.05 400
Q 115.15 373.65 118.4 346.55 118.45 345.85 118.45 345.15 117.75 345.15 117.1 345.15 115.7 345.15 114.35 345.15 114.55 342.9 111.6 343.1
L 111.6 342.45
Q 110.9 342.45 110.2 342.45 109.5 342.45 108.85 342.45 96.25 334.45 81.9 327.7 68.7 321.6 55.4 314.9 42.3 308.35 27.55 303.2 Z"/>

<path fill="#BC3444" stroke="none" d="
M 26.2 300.5
Q 25.5 300.5 24.8 300.5 16.55 300.5 8.25 300.5 6.45 298.2 1.4 299 0.7 299.15 0 299.15 0 303.85 0 308.65 0 348.55 0 388.5 0.7 388.5 0.9 388.85 4.65 394.35 8.15 400
L 32.9 400
Q 31.3 364 28.25 329 27.2 317.75 27.55 304.55 27.55 303.85 27.55 303.2 26.85 303.2 26.2 303.2 26.2 302.5 26.2 301.85 26.2 301.15 26.2 300.5
M 338.85 147.55
Q 338.15 148.25 337.4 148.3 325.8 148.9 314.05 148.9 300.3 148.9 286.65 150.2 250.55 153.5 214.9 158.4 196.75 160.8 177.7 162.4 177.7 161.75 177.7 161.1 177 161.1 176.3 161.1 172.85 161.1 169.45 161.1 164.95 158.7 157.05 159.05 156.35 159.05 155.6 159 131.3 156.65 107.45 154.3 107.45 154.95 107.6 155.7 110.4 168.35 112.95 181.4 97.2 182.3 83.95 183.45 77 184.05 74.35 184.25 65 185 57.7 186 41.3 188.15 24.8 189.5 21.65 172.15 21.35 154.3 21.35 153.6 21.3 152.95 20.25 133.2 19.3 112.35 11.75 115.15 1.4 115.05 0.7 115.05 0 115.05 0 120.45 0 125.9 0 165.85 0 205.75 6.45 201.95 12.1 197.3 17.4 193 24.8 190.85 24.8 191.55 24.8 192.2 24.8 218.6 24.8 245 25.5 245 25.85 245.35 27.85 247.45 30.3 249.05 44.1 257.2 57.85 265.4 83.15 280.4 107.45 296.45 108.15 296.45 108.85 296.45 111.15 288.55 111.05 277.5 110.7 248.2 111.1 219.3 111.3 200.05 112.95 182.75 134.45 201.55 154.85 221.45 174.5 240.65 197 257.2 199.75 257.2 202.35 256.6 202.5 256.55 202.5 255.85 201.8 255.85 201.1 255.85 199.75 255.85 198.35 255.85 193.8 220.35 188.25 185.55 187.5 180.55 187 174.6 186.65 170.55 186.65 166.5 186.65 165.85 187.35 165.1 205.55 187.15 224.1 209.05 231.45 217.85 238.95 226.95 244.45 233.55 249.9 240.55 250.7 241.6 251.05 242.6 251.4 243.65 250.7 245 267.05 240.75 285.15 238.9
L 285.15 239.6
Q 292.1 255.05 299.5 269.75 300.3 271.4 301.15 273 314.4 299.5 326.8 327.45 339.15 355 352.65 381.7 352.65 382.4 352.65 383.05 352.65 391.55 352.65 400
L 445.65 400
Q 447.8 383.9 449 366.85 449.05 366.15 449.05 365.5 449.05 352.6 449.05 339.75 449.05 339.1 449.05 338.4 448.35 338.4 447.7 338.4 448.35 319.45 447 303.2
L 447.7 303.2
Q 448.35 298 449.65 303.05 449.75 303.2 450.45 303.2 461.35 309.45 471.3 316.4 495.1 333.1 517.95 350.6 521.95 349.55 516.85 344.85 495.9 325.55 475.25 305.95 456 287.65 436.7 269.35 439.85 281.15 445.2 290.9 448.3 296.6 443.55 297.8 421.7 279.3 398.75 262.2 384.55 251.55 371.9 239.6 399.8 252.1 427.95 265 431.25 266.6 435.3 268 436.9 249.25 440 231.55 441 225.6 442.1 218.15 443.4 209.7 444.7 199.1 444.85 197.55 445.2 194.9 446.15 186.7 444.95 182.75 416.9 170.35 386.1 159.95 369.2 154.2 352.65 147.55 351.95 147.55 351.3 147.55 345.1 147.55 338.85 147.55 Z"/>

<path fill="#E14844" stroke="none" d="
M 25.85 245.35
Q 25.5 245 24.8 245 24.8 245.7 24.85 246.35 26.5 272.4 26.2 300.5 26.2 301.15 26.2 301.85 26.2 302.5 26.2 303.2 26.85 303.2 27.55 303.2 42.3 308.35 55.4 314.9 68.7 321.6 81.9 327.7 96.25 334.45 108.85 342.45 109.5 342.45 110.2 342.45 110.9 342.45 111.6 342.45 112.75 338.55 108 333.8 87.8 313.7 68.1 293.05 48.5 272.45 30.25 250.5 29.6 249.75 29.6 249.05
L 30.3 249.05
Q 27.85 247.45 25.85 245.35 Z"/>

<path fill="#E74A44" stroke="none" d="
M 111.05 277.5
Q 111.15 288.55 108.85 296.45 137.05 284.25 164.8 271.1 179.95 264.05 197 258.55 197 257.85 197 257.2 174.5 240.65 154.85 221.45 134.45 201.55 112.95 182.75 111.3 200.05 111.1 219.3 110.7 248.2 111.05 277.5 Z"/>

<path fill="#EE4F44" stroke="none" d="
M 108.85 296.45
Q 108.15 296.45 107.45 296.45 83.15 280.4 57.85 265.4 44.1 257.2 30.3 249.05
L 29.6 249.05
Q 29.6 249.75 30.25 250.5 48.5 272.45 68.1 293.05 87.8 313.7 108 333.8 112.75 338.55 111.6 342.45
L 111.6 343.1
Q 114.55 342.9 114.35 345.15 115.7 345.15 117.1 345.15 117.75 345.15 118.45 345.15 114.45 320.65 108.95 297.75 108.85 297.15 108.85 296.45 Z"/>

<path fill="#9D2444" stroke="none" d="
M 24.8 190.85
Q 17.4 193 12.1 197.3 6.45 201.95 0 205.75 0 212.5 0 219.3 0 259.2 0 299.15 0.7 299.15 1.4 299 6.45 298.2 8.25 300.5 16.55 300.5 24.8 300.5 25.5 300.5 26.2 300.5 26.5 272.4 24.85 246.35 24.8 245.7 24.8 245 24.8 218.6 24.8 192.2 24.8 191.55 24.8 190.85 Z"/>

<path fill="#871844" stroke="none" d="
M 85.35 65.95
Q 86.8 65.7 88.2 65.4 91.85 64.6 93.65 66.35 97.85 61.6 102.15 62.45 106.35 63.25 107.45 59.55 90.15 36.65 72.4 14.35 66.5 7.05 60.6 0 59.9 0 59.25 0 29.6 0 0 0 0 9.5 0 18.95 0 58.9 0 98.8 0.7 98.8 1.05 99.15 9.7 106.95 20.7 112.35 23.1 105.95 21.45 96.2 20.2 88.45 20.7 78.5 23.55 77.25 31.55 75.2 31.7 75.15 31.7 74.45 34.75 74.75 38.55 75.7 39.25 75.85 39.95 75.85 41.7 72.8 46.8 72.4 46.85 72.4 46.85 71.75 50.9 72.5 53.75 72.95 54.4 73.1 55.1 73.1 56.8 70.1 61.9 69.7 62 69.7 62 69.05 66.05 69.8 68.85 70.25 69.6 70.4 70.3 70.4 70.55 67.25 75.65 68.25 76.45 68.35 76.9 68.25 82.4 66.5 85.35 65.95 Z"/>

<path fill="#7F1343" stroke="none" d="
M 303.05 146.2
Q 303.75 146.2 304.45 146.2 309.6 143.8 318.25 144.8 326.8 145.85 332 143.45 307.2 143.45 282.4 143.65 275.5 143.75 281 143.75 288.9 143.8 293.45 146.2 298.25 146.2 303.05 146.2 Z"/>

<path fill="#6A0844" stroke="none" d="
M 173.55 159.05
Q 172.85 159.05 172.05 158.85 139.8 150.25 108.5 141.9 84.05 135.4 59.25 129.95 81.9 142.85 107.2 153.5 107.45 153.6 107.45 154.3 131.3 156.65 155.6 159 156.35 159.05 157.05 159.05 164.95 158.7 169.45 161.1 172.85 161.1 176.3 161.1 177 161.1 177.7 161.1 180.2 159.25 173.55 159.05 Z"/>

<path fill="#DD4544" stroke="none" d="
M 186.65 166.5
Q 186.65 170.55 187 174.6 187.5 180.55 188.25 185.55 193.8 220.35 198.35 255.85 199.75 255.85 201.1 255.85 201.8 255.85 202.5 255.85 227.4 251.9 249.4 245.2 250 245 250.7 245 251.4 243.65 251.05 242.6 250.7 241.6 249.9 240.55 244.45 233.55 238.95 226.95 231.45 217.85 224.1 209.05 205.55 187.15 187.35 165.1 186.65 165.85 186.65 166.5 Z"/>

<path fill="#8B1A44" stroke="none" d="
M 206.25 1.15
Q 206.6 0.7 206.6 0 205.9 0 205.25 0 192.85 0 180.5 0 180.5 0.7 180.8 1.15 186.05 9.4 191.5 17.6 199.95 10.35 206.25 1.15 Z"/>

<path fill="#811444" stroke="none" d="
M 452.85 369.85
Q 452.5 369.55 451.8 369.55 453.65 374.6 454.7 376.25 461.95 387.4 467.65 400
L 487.45 400
Q 469.7 385.35 452.85 369.85 Z"/>

<path fill="#9E2444" stroke="none" d="
M 449.05 365.5
Q 449.05 366.15 449 366.85 447.8 383.9 445.65 400
L 467.65 400
Q 461.95 387.4 454.7 376.25 453.65 374.6 451.8 369.55 450.5 368.1 449.8 365.7 449.75 365.5 449.05 365.5 Z"/>

<path fill="#781044" stroke="none" d="
M 447.7 303.2
Q 447.7 303.85 447.75 304.55 449.95 320 449.05 338.4 449.05 339.1 449.05 339.75 449.05 352.6 449.05 365.5 449.75 365.5 449.8 365.7 450.5 368.1 451.8 369.55 452.5 369.55 452.85 369.85 469.7 385.35 487.45 400
L 503.25 400
Q 491.25 375.45 477.75 352.6 470.5 340.35 463.95 327.7 463.55 326.9 463 326.15 455.75 315.6 450.45 303.2 449.75 303.2 449.65 303.05 448.35 298 447.7 303.2 Z"/>

<path fill="#A02542" stroke="none" d="
M 447.75 304.55
Q 447.7 303.85 447.7 303.2
L 447 303.2
Q 448.35 319.45 447.7 338.4 448.35 338.4 449.05 338.4 449.95 320 447.75 304.55 Z"/>

<path fill="#FD6044" stroke="none" d="
M 352.65 383.05
Q 352.65 382.4 352.65 381.7 339.15 355 326.8 327.45 314.4 299.5 301.15 273 300.3 271.4 299.5 269.75 292.1 255.05 285.15 239.6 281.9 249.95 280.1 261.3 279.65 264.6 278.95 267.9 275.85 281.9 273.6 297.75 273.45 298.5 273.5 299.1 274.4 308.2 268.65 309.95 245.75 292.5 221.9 275.95 209.45 267.3 197 258.55 179.95 264.05 164.8 271.1 137.05 284.25 108.85 296.45 108.85 297.15 108.95 297.75 114.45 320.65 118.45 345.15 136.4 339.75 154.15 333.85 164.2 330.55 174.5 326.5 188.8 320.85 207.95 319 226.3 317.1 243.9 314.75 249.35 314 254.55 312.8 263.8 310.65 271.4 312.65 271.4 319.45 271.3 326.25 271.1 363.9 272.65 400
L 352.65 400
Q 352.65 391.55 352.65 383.05 Z"/>

<path fill="#E64B44" stroke="none" d="
M 436.35 268.35
Q 436 268 435.3 268 431.25 266.6 427.95 265 399.8 252.1 371.9 239.6 384.55 251.55 398.75 262.2 421.7 279.3 443.55 297.8 448.3 296.6 445.2 290.9 439.85 281.15 436.7 269.35 436.7 268.7 436.35 268.35 Z"/>

<path fill="#8A1944" stroke="none" d="
M 332.3 1
Q 332 0.7 332 0 331.3 0 330.6 0 299.6 0 268.65 0 268.65 0.7 268.55 1.35 266.3 36.3 267.25 74.45 277.3 72.6 281.2 70.85 288.45 67.55 295.2 64.6 300.5 62.35 308.15 58.7 314.75 55.55 322.3 52.6 327.65 50.55 333.1 48.15 341.95 44.1 349.35 40.8 358.85 36.5 366.4 35.2 350.05 17.4 332.3 1 Z"/>

<path fill="#9B2244" stroke="none" d="
M 412.55 98.3
Q 411.9 97.5 411.2 96.6 394 73.7 376.85 50.55 371.65 43.55 367.8 35.2 367.1 35.2 366.4 35.2 358.85 36.5 349.35 40.8 341.95 44.1 333.1 48.15 327.65 50.55 322.3 52.6 314.75 55.55 308.15 58.7 300.5 62.35 295.2 64.6 288.45 67.55 281.2 70.85 277.3 72.6 267.25 74.45 266.3 36.3 268.55 1.35 268.65 0.7 268.65 0 267.95 0 267.25 0 236.95 0 206.6 0 206.6 0.7 206.25 1.15 199.95 10.35 191.5 17.6 186.05 9.4 180.8 1.15 180.5 0.7 180.5 0 161.2 0 141.9 0 101.25 0 60.6 0 66.5 7.05 72.4 14.35 90.15 36.65 107.45 59.55 106.35 63.25 102.15 62.45 97.85 61.6 93.65 66.35 91.85 64.6 88.2 65.4 86.8 65.7 85.35 65.95 82.4 66.5 76.9 68.25 76.45 68.35 75.65 68.25 70.55 67.25 70.3 70.4 69.6 70.4 68.85 70.25 66.05 69.8 62 69.05 62 69.7 61.9 69.7 56.8 70.1 55.1 73.1 54.4 73.1 53.75 72.95 50.9 72.5 46.85 71.75 46.85 72.4 46.8 72.4 41.7 72.8 39.95 75.85 39.25 75.85 38.55 75.7 34.75 74.75 31.7 74.45 31.7 75.15 31.55 75.2 23.55 77.25 20.7 78.5 20.2 88.45 21.45 96.2 23.1 105.95 20.7 112.35 9.7 106.95 1.05 99.15 0.7 98.8 0 98.8 0 99.5 0 100.15 0 107.65 0 115.05 0.7 115.05 1.4 115.05 11.75 115.15 19.3 112.35 20.25 133.2 21.3 152.95 21.35 153.6 21.35 154.3 21.65 172.15 24.8 189.5 41.3 188.15 57.7 186 65 185 74.35 184.25 77 184.05 83.95 183.45 97.2 182.3 112.95 181.4 110.4 168.35 107.6 155.7 107.45 154.95 107.45 154.3 107.45 153.6 107.2 153.5 81.9 142.85 59.25 129.95 84.05 135.4 108.5 141.9 139.8 150.25 172.05 158.85 172.85 159.05 173.55 159.05 180.2 159.25 177.7 161.1 177.7 161.75 177.7 162.4 196.75 160.8 214.9 158.4 250.55 153.5 286.65 150.2 300.3 148.9 314.05 148.9 325.8 148.9 337.4 148.3 338.15 148.25 338.85 147.55 338.15 147.55 337.5 147.55 329.9 147.55 322.35 147.55 315.75 145.2 305.8 146.15 305.1 146.2 304.45 146.2 303.75 146.2 303.05 146.2 298.25 146.2 293.45 146.2 288.9 143.8 281 143.75 275.5 143.75 282.4 143.65 307.2 143.45 332 143.45 355.4 143.45 378.85 142.75 387.4 142.45 392.6 144.8 418.75 144.8 444.95 144.8 445.6 144.8 446.3 144.8 430.35 120.6 412.55 98.3
M 175 68.35
Q 187.9 69.2 195.35 74.75 197.55 76.5 190.1 75.85 164.9 68.75 135 66.4 134.3 66.35 133.65 66.35 132.95 66.35 132.45 66.1 130.25 64.7 126.75 66.35 122.9 62.95 115.7 62.95 127.15 62.55 136.4 64.95 143.75 65.9 151.5 66.6 163.25 67.7 175 68.35 Z"/>

<path fill="#7D1243" stroke="none" d="
M 132.45 66.1
Q 132.95 66.35 133.65 66.35 134.3 65.7 135.15 65.25 135.7 64.95 136.4 64.95 127.15 62.55 115.7 62.95 122.9 62.95 126.75 66.35 130.25 64.7 132.45 66.1 Z"/>

<path fill="#620344" stroke="none" d="
M 195.35 74.75
Q 187.9 69.2 175 68.35 163.25 67.7 151.5 66.6 143.75 65.9 136.4 64.95 135.7 64.95 135.15 65.25 134.3 65.7 133.65 66.35 134.3 66.35 135 66.4 164.9 68.75 190.1 75.85 197.55 76.5 195.35 74.75 Z"/>

<path fill="#680744" stroke="none" d="
M 410.7 40.8
Q 419.9 42.15 427 44.65 436.6 43.85 427.15 40.25 426.3 39.95 425.55 39.35 402.95 21.65 379.6 4.85 377.45 3.3 376 1.4 375.4 0.7 374.7 0 374 0 373.35 0 352.65 0 332 0 332 0.7 332.3 1 350.05 17.4 366.4 35.2 367.1 35.2 367.8 35.2 378.3 36.55 383 37.2 392.85 38.3 401 39.45 408.85 40.55 410.7 40.8 Z"/>

<path fill="#941F44" stroke="none" d="
M 532.05 174.25
Q 531.7 173.9 531.7 173.25 531 173.25 530.35 173.25 528.25 173.25 526.2 173.25 496.2 162.85 464.3 154.15 456.25 151.95 448.85 149.45 437.35 145.55 421.5 146.5 388.65 148.45 352.65 147.55 369.2 154.2 386.1 159.95 416.9 170.35 444.95 182.75 446.15 186.7 445.2 194.9 444.85 197.55 444.7 199.1 443.4 209.7 442.1 218.15 441 225.6 440 231.55 436.9 249.25 435.3 268 436 268 436.35 268.35 436.7 268.7 436.7 269.35 456 287.65 475.25 305.95 495.9 325.55 516.85 344.85 521.95 349.55 517.95 350.6 495.1 333.1 471.3 316.4 461.35 309.45 450.45 303.2 455.75 315.6 463 326.15 463.55 326.9 463.95 327.7 470.5 340.35 477.75 352.6 491.25 375.45 503.25 400
L 550 400 550 197.65
Q 549.8 197.65 549.65 197.65 541.95 184.9 532.05 174.25 Z"/>

<path fill="#600344" stroke="none" d="
M 524.85 167.85
Q 524.15 167.85 523.45 167.85 492.2 158.65 461.15 150.1 452.9 147.85 446.3 144.8 445.6 144.8 444.95 144.8 418.75 144.8 392.6 144.8 387.4 142.45 378.85 142.75 355.4 143.45 332 143.45 326.8 145.85 318.25 144.8 309.6 143.8 304.45 146.2 305.1 146.2 305.8 146.15 315.75 145.2 322.35 147.55 329.9 147.55 337.5 147.55 338.15 147.55 338.85 147.55 345.1 147.55 351.3 147.55 351.95 147.55 352.65 147.55 388.65 148.45 421.5 146.5 437.35 145.55 448.85 149.45 456.25 151.95 464.3 154.15 496.2 162.85 526.2 173.25 528.25 173.25 530.35 173.25 531 173.25 531.7 173.25 530.6 169.6 526.35 168.6 526.2 168.55 526.2 167.85 525.5 167.85 524.85 167.85 Z"/>

<path fill="#8C1B44" stroke="none" d="
M 550 124.3
Q 549.95 124.25 549.9 124.2 533.15 109.6 517.95 93.4 515.8 94.85 517.15 99.1 517.25 99.5 517.4 99.95 518.45 103.75 518.65 108.3 519.05 115.6 521.2 123.05 521.4 123.85 521.3 124.45 520.85 129.2 522.55 132.35 523.4 134.05 522.55 136.4 521.4 139.55 522.95 143.65 524.95 148.9 525.45 158.45
L 525.5 159.05
Q 529.3 162.95 526.2 167.85 526.2 168.55 526.35 168.6 530.6 169.6 531.7 173.25 531.7 173.9 532.05 174.25 541.95 184.9 549.65 197.65 549.8 197.65 550 197.65
L 550 124.3 Z"/>

<path fill="#8D1B44" stroke="none" d="
M 550 25.75
Q 549.8 25.75 549.65 25.75 548.95 25.75 548.25 25.75 535.5 20.65 523.85 14.2 512.2 7.75 501.4 0 478.65 0 456 0 415.3 0 374.7 0 375.4 0.7 376 1.4 377.45 3.3 379.6 4.85 402.95 21.65 425.55 39.35 426.3 39.95 427.15 40.25 436.6 43.85 427 44.65 419.9 42.15 410.7 40.8 408.85 40.55 401 39.45 392.85 38.3 383 37.2 378.3 36.55 367.8 35.2 371.65 43.55 376.85 50.55 394 73.7 411.2 96.6 411.9 97.5 412.55 98.3 430.35 120.6 446.3 144.8 452.9 147.85 461.15 150.1 492.2 158.65 523.45 167.85 524.15 167.85 524.85 167.85 525.5 167.85 526.2 167.85 529.3 162.95 525.5 159.05
L 525.45 158.45
Q 524.95 148.9 522.95 143.65 521.4 139.55 522.55 136.4 523.4 134.05 522.55 132.35 520.85 129.2 521.3 124.45 521.4 123.85 521.2 123.05 519.05 115.6 518.65 108.3 518.45 103.75 517.4 99.95 517.25 99.5 517.15 99.1 515.8 94.85 517.95 93.4 533.15 109.6 549.9 124.2 549.95 124.25 550 124.3
L 550 25.75 Z"/>

<path fill="#C23744" stroke="none" d="
M 550 17.6
Q 549.8 17.6 549.65 17.6 543.6 8 534.8 0.95 534.45 0.7 534.45 0 533.75 0 533.1 0 517.25 0 501.4 0 512.2 7.75 523.85 14.2 535.5 20.65 548.25 25.75 548.95 25.75 549.65 25.75 549.8 25.75 550 25.75
L 550 17.6 Z"/>

<path fill="#841645" stroke="none" d="
M 549.65 0.2
Q 549.65 0 548.25 0 541.4 0 534.45 0 534.45 0.7 534.8 0.95 543.6 8 549.65 17.6 549.8 17.6 550 17.6
L 550 2.6
Q 549.85 1.4 549.65 0.2 Z"/>
</g>
</defs>

<g transform="matrix( 1, 0, 0, 1, 0,0) ">
<use xlink:href="#Layer0_0_FILL"/>
</g>
</svg>
