
<svg xmlns="http://www.w3.org/2000/svg" version="1.1" xmlns:xlink="http://www.w3.org/1999/xlink" preserveAspectRatio="none" x="0px" y="0px" width="244px" height="90px" viewBox="0 0 244 90">
<defs>
<g id="Layer0_0_FILL">
<path fill="#FFFFFF" stroke="none" d="
M 103.15 62.5
L 102.3 62.5 102.55 62.55 102.85 62.55 103.15 62.5
M 221.3 42.2
Q 218.9 43.55 217.4 46.1 215.95 48.65 215.9 52.3 215.95 55.95 217.4 58.5 218.9 61.05 221.3 62.4 223.75 63.75 226.55 63.75 229.35 63.75 231.75 62.4 234.2 61.05 235.65 58.5 237.15 55.95 237.2 52.3 237.15 48.65 235.65 46.1 234.2 43.55 231.75 42.2 229.35 40.9 226.55 40.85 223.75 40.9 221.3 42.2
M 226.55 46.1
Q 228.55 46.15 229.55 47.8 230.6 49.45 230.6 52.3 230.6 55.2 229.55 56.85 228.55 58.5 226.55 58.5 224.55 58.5 223.55 56.85 222.55 55.2 222.55 52.3 222.55 49.45 223.55 47.8 224.55 46.15 226.55 46.1
M 56.45 68.95
L 55 68.95 50.85 80.7 50.8 80.7 46.6 68.95 45.2 68.95 45.2 83.5 46.1 83.5 46.1 73.95
Q 46.1 73.05 46.05 72 46.05 70.95 46 70
L 46.1 70 50.35 81.9 51.25 81.9 55.5 70 55.6 70
Q 55.55 70.95 55.5 72 55.45 73.05 55.45 73.95
L 55.45 83.5 56.45 83.5 56.45 68.95
M 67.65 69.85
L 74.55 69.85 74.55 68.95 66.65 68.95 66.65 83.5 74.8 83.5 74.8 82.6 67.65 82.6 67.65 76.2 73.45 76.2 73.45 75.35 67.65 75.35 67.65 69.85
M 31.85 68.95
L 30.8 68.95 25.7 83.5 26.7 83.5 28.4 78.5 34.2 78.5 35.85 83.5 36.95 83.5 31.85 68.95
M 31.35 69.9
Q 31.75 71.25 32.15 72.45 32.55 73.65 32.95 74.95
L 33.9 77.65 28.75 77.65 29.65 74.95
Q 30.1 73.65 30.5 72.45 30.9 71.25 31.25 69.9
L 31.35 69.9
M 132.15 72.7
Q 132.8 71.25 134 70.45 135.2 69.65 136.85 69.65 138.05 69.65 138.85 70.05 139.65 70.5 140.2 71.1
L 140.8 70.45
Q 140.4 70.05 139.85 69.65 139.35 69.25 138.6 69 137.85 68.7 136.85 68.7 134.95 68.7 133.5 69.6 132.05 70.55 131.25 72.2 130.45 73.9 130.45 76.2 130.45 78.55 131.2 80.2 132 81.9 133.4 82.8 134.8 83.75 136.65 83.75 138.1 83.75 139.2 83.3 140.3 82.85 140.95 82.1
L 140.95 76.35 136.55 76.35 136.55 77.2 140 77.2 140 81.75
Q 139.45 82.25 138.6 82.55 137.75 82.85 136.75 82.85 135.1 82.8 133.9 82 132.75 81.2 132.1 79.7 131.5 78.2 131.5 76.2 131.5 74.2 132.15 72.7
M 151.6 68.95
L 150.6 68.95 150.6 83.5 151.6 83.5 151.6 68.95
M 112.55 68.95
L 111.5 68.95 111.5 83.5 112.45 83.5 112.45 74.5
Q 112.45 73.4 112.4 72.4 112.35 71.4 112.3 70.35
L 112.4 70.35 120.15 83.5 121.2 83.5 121.2 68.95 120.25 68.95 120.25 77.9
Q 120.25 78.95 120.3 80 120.35 81.05 120.4 82.1
L 120.3 82.1 112.55 68.95
M 102.2 69.85
L 102.2 68.95 94.3 68.95 94.3 83.5 102.45 83.5 102.45 82.6 95.3 82.6 95.3 76.2 101.1 76.2 101.1 75.35 95.3 75.35 95.3 69.85 102.2 69.85
M 171.5 68.95
L 170.55 68.95 170.55 77.9
Q 170.55 78.95 170.6 80 170.65 81.05 170.7 82.1
L 170.6 82.1 162.85 68.95 161.8 68.95 161.8 83.5 162.75 83.5 162.75 74.5
Q 162.75 73.4 162.7 72.4 162.65 71.4 162.6 70.35
L 162.7 70.35 170.45 83.5 171.5 83.5 171.5 68.95
M 189.6 69.85
L 189.6 68.95 181.7 68.95 181.7 83.5 189.85 83.5 189.85 82.6 182.7 82.6 182.7 76.2 188.5 76.2 188.5 75.35 182.7 75.35 182.7 69.85 189.6 69.85
M 195.9 56.8
Q 194.85 57.9 194.8 59.7 194.85 61.45 195.9 62.6 197 63.7 198.75 63.75 200.45 63.7 201.55 62.6 202.6 61.45 202.65 59.7 202.6 57.9 201.55 56.8 200.45 55.65 198.75 55.6 197 55.65 195.9 56.8
M 213.1 41.35
L 206.6 41.35 206.6 63.25 213.1 63.25 213.1 41.35
M 212.55 32.35
Q 211.5 31.45 209.85 31.4 208.2 31.45 207.15 32.35 206.15 33.25 206.1 34.75 206.15 36.3 207.15 37.2 208.2 38.15 209.85 38.15 211.5 38.15 212.55 37.2 213.55 36.3 213.6 34.75 213.55 33.25 212.55 32.35
M 11.1 70.45
Q 12.3 69.65 13.95 69.65 15.15 69.65 15.95 70.05 16.75 70.5 17.3 71.1
L 17.9 70.45
Q 17.5 70.05 16.95 69.65 16.45 69.25 15.7 69 14.95 68.7 13.95 68.7 12.05 68.7 10.6 69.6 9.15 70.55 8.35 72.2 7.55 73.9 7.55 76.2 7.55 78.55 8.3 80.2 9.1 81.9 10.5 82.8 11.9 83.75 13.75 83.75 15.2 83.75 16.3 83.3 17.4 82.85 18.05 82.1
L 18.05 76.35 13.65 76.35 13.65 77.2 17.1 77.2 17.1 81.75
Q 16.55 82.25 15.7 82.55 14.85 82.85 13.85 82.85 12.2 82.8 11 82 9.85 81.2 9.2 79.7 8.6 78.2 8.6 76.2 8.6 74.2 9.25 72.7 9.9 71.25 11.1 70.45
M 36.05 36.85
L 17.8 36.85 17.8 19.25 7.9 19.25 7.9 63.3 17.8 63.3 17.8 45.35 36.05 45.35 36.05 63.3 46.05 63.3 46.05 19.25 36.05 19.25 36.05 36.85
M 75.75 45.15
L 75.75 37.15 61.3 37.15 61.3 27.35 76.8 27.35 76.8 19.25 51.4 19.25 51.4 63.3 77.85 63.3 77.85 55.2 61.3 55.2 61.3 45.15 75.75 45.15
M 94.85 34.4
Q 95.05 34.3 95.45 34.3
L 97.85 34.15
Q 98.1 33.6 98.6 33.75 98.7 33.25 99.4 33.4 100.2 33.55 100.35 33.55 99.95 33.25 99.9 33 99.75 32.55 100.05 32.35 100.25 32.25 100.75 32.5 101.5 32.8 102.25 33.05 101.8 32.85 101.7 32.3 101.7 31.95 102 31.8 102.15 31.7 102.45 31.75 102.7 31.85 103.05 32.1 103.25 32.2 103.65 32.5 103.95 32.7 104.7 33.05 105.05 33.25 105.6 33.75
L 105.6 33.8
Q 105.8 34 106 34.15 106.5 34.65 106.5 34.75
L 106.5 34.8
Q 108 35.2 109.5 35.95 112.05 37.35 113.7 39.2 115.25 41 115.7 43.35
L 113.95 43.35 113.85 44.8 113.7 46.6 112.9 46.1 110.65 44.65 102.8 48.45
Q 106.5 54.6 115.5 54.85 114.35 57 112.5 58.75 110.25 60.95 107.2 61.9 106.7 62.05 106.2 62.2 106.2 62.5 106.2 62.75 106.2 63.15 106.15 63.55
L 124.4 63.55 102.75 4 80.95 63.55 98.65 63.55
Q 98.55 63.1 98.55 62.6 98.55 62.3 98.55 62 97.8 61.75 97.05 61.4 94.35 60.15 92.4 58 90.45 55.9 89.5 53.2 88.45 50.35 88.7 47.35 88.95 44.35 90.2 41.9 91.1 40.15 92.4 38.75 93.1 37.6 94.25 37.05
L 93.45 36.95
Q 92.95 36.85 92.95 36.45 92.95 36.25 93.25 36 94.2 35.2 95.4 35.25 94.8 35.2 94.65 34.95 94.45 34.65 94.85 34.4
M 155.1 44.05
Q 159.85 39.9 159.85 33.3 159.85 19.25 143.25 19.25
L 127.65 19.25 127.65 63.3 137.55 63.3 137.55 48.15 142.35 48.15
Q 150.3 48.15 155.1 44.05
M 137.55 40.6
L 137.55 26.85 141.5 26.85
Q 149.4 26.85 149.4 33.7 149.4 40.6 141.5 40.6
L 137.55 40.6
M 191.3 20.85
Q 189.05 20.05 186.35 19.65 183.7 19.25 180.3 19.25 176.75 19.25 173.65 19.9 170.5 20.65 168.15 22.25 165.75 23.75 164.35 26.2 163 28.6 163 31.9 163 36.15 165.55 39.2 168.05 42.15 173.2 44.3 175.25 45.1 177 45.85 178.7 46.65 180 47.5 181.3 48.3 182 49.3 182.75 50.25 182.75 51.55 182.75 52.45 182.25 53.25 181.85 54.05 180.9 54.65 180 55.2 178.6 55.45 177.2 55.85 175.3 55.85 172.1 55.85 168.95 54.8 165.8 53.65 163.15 51.5
L 163.15 61.05
Q 165.55 62.2 168.85 62.8 172.1 63.45 175.7 63.45 179.25 63.45 182.4 62.75 185.65 62.1 188 60.65 190.4 59.1 191.85 56.65 193.2 54.25 193.2 50.65 193.2 48.05 192.4 46.15 191.6 44.2 190.05 42.65 188.6 41.1 186.5 39.95 184.35 38.7 181.75 37.65 179.8 36.9 178.3 36.15 176.7 35.4 175.65 34.6 174.6 33.85 174 33.1 173.4 32.2 173.4 31.05 173.4 30.1 173.95 29.35 174.45 28.55 175.4 28 176.35 27.4 177.75 27.1 179.1 26.8 180.8 26.8 182.1 26.8 183.45 26.95 184.8 27.15 186.15 27.55 187.55 27.85 188.85 28.45 190.15 29 191.3 29.75
L 191.3 20.85 Z"/>
</g>
</defs>

<g transform="matrix( 1, 0, 0, 1, 0,0) ">
<use xlink:href="#Layer0_0_FILL"/>
</g>
</svg>
